<svg width="12" height="9" viewBox="0 0 12 9" fill="none" xmlns="http://www.w3.org/2000/svg">
<path d="M11.5304 1.53033C11.8233 1.23744 11.8233 0.762563 11.5304 0.46967C11.2375 0.176777 10.7626 0.176777 10.4697 0.46967L11.5304 1.53033ZM4.00004 8.00002L3.46971 8.53035C3.76261 8.82324 4.23748 8.82324 4.53037 8.53035L4.00004 8.00002ZM1.53033 4.46967C1.23743 4.17678 0.76256 4.17678 0.469668 4.46967C0.176776 4.76257 0.176778 5.23744 0.469672 5.53033L1.53033 4.46967ZM10.4697 0.46967L3.46971 7.46969L4.53037 8.53035L11.5304 1.53033L10.4697 0.46967ZM0.469672 5.53033L3.46971 8.53035L4.53037 7.46969L1.53033 4.46967L0.469672 5.53033Z" fill="white"/>
</svg>
