<svg width="100" height="100" viewBox="0 0 100 100" fill="none" xmlns="http://www.w3.org/2000/svg">
<circle cx="50" cy="50" r="50" fill="black" fill-opacity="0.2"/>
<path d="M48.0618 19H51.9362C52.9521 19.1327 53.9761 19.2249 54.9839 19.4028C63.7712 20.9493 70.6852 25.419 75.7664 32.7471C75.9136 32.9607 76.2096 33.1516 76.4636 33.1952C79.2541 33.6822 80.9947 35.7043 80.9964 38.5336C81.0012 46.1804 81.0012 53.8273 80.9964 61.4741C80.9947 64.2743 79.2573 66.3061 76.5105 66.793C76.2371 66.8416 75.92 67.0373 75.7583 67.2606C68.2619 77.6332 58.1594 82.2695 45.4557 80.6016C36.5358 79.4304 29.557 74.8022 24.3966 67.4466C24.0941 67.0147 23.7673 66.8108 23.2561 66.7154C21.213 66.3352 19.8816 65.1106 19.2232 63.1452C19.1488 62.9203 19.0744 62.6954 19 62.4706C19 54.1556 19 45.8407 19 37.5258C19.0388 37.4368 19.0906 37.3511 19.1149 37.2589C19.6956 34.9957 21.1321 33.6401 23.4309 33.2421C23.8531 33.1693 24.0909 32.9866 24.3254 32.6501C29.3015 25.4837 36.0666 21.0609 44.6598 19.4772C45.7841 19.2702 46.9262 19.1569 48.0602 19H48.0618ZM50.0144 37.047C41.5393 37.047 33.0642 37.047 24.5891 37.047C23.2998 37.047 22.876 37.4659 22.876 38.7391C22.876 46.2451 22.876 53.7512 22.876 61.2589C22.876 62.5304 23.3014 62.951 24.5907 62.951C41.5199 62.951 58.4506 62.951 75.3797 62.951C76.7095 62.951 77.1252 62.5401 77.1252 61.2282C77.1252 53.7415 77.1252 46.2565 77.1252 38.7698C77.1252 37.4562 76.7111 37.047 75.3797 37.047C66.9257 37.047 58.47 37.047 50.016 37.047H50.0144ZM41.968 33.1402H58.0349C57.2131 30.5924 56.2473 28.1642 54.6571 26.0547C54.0117 25.1974 53.24 24.3901 52.3891 23.7382C50.8183 22.5347 49.199 22.5961 47.5814 23.7253C46.436 24.526 45.5835 25.5905 44.8394 26.7504C43.5711 28.7256 42.6814 30.8706 41.968 33.1402ZM41.9534 66.8448C42.7995 69.4202 43.7539 71.8564 45.357 73.9594C46.0316 74.8443 46.8421 75.6693 47.7286 76.339C49.1392 77.4051 50.7019 77.4132 52.1772 76.4151C52.8372 75.9686 53.4552 75.4218 53.9777 74.82C55.7782 72.7494 56.8491 70.2743 57.755 67.7184C57.8521 67.4434 57.933 67.1619 58.0332 66.8448H41.9566H41.9534ZM58.2565 24.2348C58.9667 25.6147 59.7464 26.9623 60.3627 28.3794C60.9888 29.8159 61.4708 31.3171 61.9739 32.8054C62.1001 33.1774 62.3169 33.1758 62.6097 33.1758C65.3145 33.171 68.0176 33.1742 70.7224 33.171C70.8664 33.171 71.0104 33.1402 71.1883 33.1208C68.4528 29.3451 61.8575 24.835 58.2549 24.2365L58.2565 24.2348ZM62.0937 66.861C61.1683 69.9734 59.9745 72.992 58.2063 75.7745C63.4234 74.1179 67.7297 71.1673 71.2417 66.861H62.0937ZM41.7722 75.8295C41.0232 74.3687 40.237 73.0034 39.6142 71.5685C38.9898 70.132 38.5433 68.6178 37.9787 67.1538C37.9173 66.9936 37.5954 66.8432 37.3915 66.8416C34.6884 66.8205 31.9852 66.827 29.2804 66.8303C29.1348 66.8303 28.9892 66.861 28.7709 66.8853C32.2699 71.1705 36.573 74.1179 41.7706 75.8311L41.7722 75.8295ZM28.7256 33.1726C29.0507 33.1726 29.2238 33.1726 29.3985 33.1726C32.0418 33.1726 34.6851 33.1613 37.3268 33.1839C37.7668 33.1871 37.9464 33.0561 38.0726 32.629C38.8458 30.0116 39.8634 27.4961 41.2772 25.1505C41.4568 24.8528 41.6396 24.5584 41.9065 24.1248C36.5746 25.88 32.2748 28.8291 28.7256 33.1726Z" fill="#0089FF"/>
<path fill-rule="evenodd" clip-rule="evenodd" d="M23 33C20.7909 33 19 34.7908 19 37V63C19 65.2092 20.7909 67 23 67H77C79.2091 67 81 65.2092 81 63V37C81 34.7908 79.2091 33 77 33H23ZM69.5771 50.5611V51.3829C69.489 51.2748 69.4166 51.1871 69.3546 51.1119L69.2816 51.0235C69.2139 50.941 69.1584 50.8725 69.1047 50.8022L67.8286 49.1224C65.9846 46.6953 64.1414 44.269 62.3024 41.8386C61.9352 41.3532 61.5049 40.9828 60.8788 40.91C59.5944 40.7612 58.6869 41.6202 58.6852 43.0227C58.6797 46.1912 58.681 49.3596 58.6824 52.5286V52.6929C58.683 54.1288 58.6836 55.5649 58.6836 57.0012C58.6836 57.1419 58.6869 57.2827 58.703 57.4233C58.8033 58.3358 59.5685 59.0524 60.4841 59.0977C61.7054 59.1591 62.5482 58.3002 62.5531 56.9526C62.5596 55.2672 62.559 53.5823 62.5582 51.8973C62.5579 51.0611 62.5575 50.2248 62.558 49.3883C62.558 49.1861 62.5758 48.9839 62.5935 48.6377C63.0715 49.2668 63.5156 49.8523 63.9451 50.4185L64.2087 50.7661L64.2494 50.8199L64.9279 51.7145L66.1208 53.2871C67.3923 54.9634 68.6641 56.64 69.9395 58.3147C70.4734 59.0168 71.1948 59.2416 72.0344 59.0346C72.8141 58.8437 73.3285 58.1821 73.4288 57.3182C73.4467 57.1581 73.4498 56.9963 73.4498 56.8345V43.1586C73.4498 42.9774 73.4482 42.7946 73.424 42.6151C73.272 41.4745 72.3271 40.7563 71.1932 40.9116C70.2339 41.041 69.5868 41.8337 69.582 42.9353C69.5707 45.4783 69.5771 48.0197 69.5771 50.5611ZM47.0151 52.1756V55.1845C47.0151 55.3719 47.0166 55.5594 47.0181 55.7469C47.0222 56.2653 47.0264 56.7841 46.999 57.3021C46.9456 58.3228 46.153 59.0734 45.1548 59.1009C44.1389 59.1284 43.3285 58.4522 43.1796 57.4396C43.144 57.2017 43.144 56.9575 43.144 56.7164C43.1425 52.2386 43.1425 47.7625 43.144 43.2847C43.144 41.5781 43.8251 40.889 45.5139 40.889C46.0234 40.889 46.533 40.8869 47.0425 40.8848C48.4288 40.8791 49.8148 40.8734 51.2001 40.91C53.9906 40.9844 56.2377 43.0922 56.5709 45.873C56.9607 49.1327 54.476 52.0478 51.1824 52.1627C50.3862 52.1907 49.5892 52.1852 48.792 52.1799C48.4392 52.1775 48.0863 52.1751 47.7334 52.1756H47.0151ZM47.0588 44.7811V48.2932C47.4681 48.2932 47.8737 48.2959 48.2766 48.2986H48.2795C49.2244 48.305 50.1544 48.3112 51.0836 48.2818C52.0155 48.2527 52.745 47.4325 52.7499 46.5298C52.7548 45.6611 52.0834 44.8297 51.2147 44.7957C50.2601 44.7572 49.304 44.7654 48.3289 44.7739H48.3259C48.0759 44.776 47.8247 44.7782 47.5719 44.7796C47.4016 44.7805 47.2306 44.7811 47.0588 44.7811ZM37.5128 42.3013C36.3497 45.3894 35.1704 48.4744 33.9491 51.6887V51.6903C33.866 51.4841 33.7999 51.3271 33.7426 51.1865C33.7117 51.1109 33.6833 51.04 33.6562 50.9688C33.3164 50.0725 32.9768 49.1758 32.6372 48.2791C31.8857 46.2951 31.1342 44.3108 30.3789 42.3287C29.9308 41.1527 28.8987 40.6205 27.8456 41.0006C26.7633 41.3905 26.3038 42.4905 26.7537 43.6812C28.5201 48.3514 30.2931 53.0201 32.0693 57.6871C32.4333 58.6448 33.0658 59.1074 33.9572 59.101C34.8405 59.0945 35.46 58.6237 35.8304 57.658C36.4209 56.1163 37.0033 54.5714 37.5889 53.0281C38.7747 49.9028 39.9685 46.7806 41.1429 43.652C41.7075 42.1459 40.6948 40.745 39.1694 40.9084C38.3217 41.0006 37.809 41.5134 37.5128 42.3013Z" fill="#FDBB2C"/>
</svg>
