<svg width="33" height="16" viewBox="0 0 33 16" fill="none" xmlns="http://www.w3.org/2000/svg">
<path d="M0 1H26C29.866 1 33 4.13401 33 8V9C33 12.866 29.866 16 26 16H0V1Z" fill="#0089FF"/>
<path d="M10.5707 4.432L7.65468 13H5.67468L2.77068 4.432H4.60668L6.21468 9.532C6.23868 9.62 6.28268 9.784 6.34668 10.024C6.41068 10.256 6.47468 10.504 6.53868 10.768C6.60268 11.024 6.64668 11.24 6.67068 11.416C6.69468 11.24 6.73468 11.024 6.79068 10.768C6.85468 10.504 6.91468 10.256 6.97068 10.024C7.03468 9.784 7.08268 9.62 7.11468 9.532L8.73468 4.432H10.5707ZM14.3914 4.432C15.4954 4.432 16.2994 4.672 16.8034 5.152C17.3154 5.624 17.5714 6.276 17.5714 7.108C17.5714 7.612 17.4674 8.08 17.2594 8.512C17.0514 8.944 16.7034 9.292 16.2154 9.556C15.7354 9.82 15.0794 9.952 14.2474 9.952H13.4674V13H11.6554V4.432H14.3914ZM14.2954 5.92H13.4674V8.464H14.0674C14.5794 8.464 14.9834 8.364 15.2794 8.164C15.5834 7.956 15.7354 7.624 15.7354 7.168C15.7354 6.336 15.2554 5.92 14.2954 5.92ZM26.7865 13H24.4825L20.7505 6.52H20.7025C20.7185 6.928 20.7345 7.336 20.7505 7.744C20.7745 8.152 20.7945 8.56 20.8105 8.968V13H19.1905V4.432H21.4825L25.2025 10.852H25.2385C25.2225 10.46 25.2065 10.068 25.1905 9.676C25.1745 9.284 25.1625 8.888 25.1545 8.488V4.432H26.7865V13Z" fill="white"/>
</svg>
