<svg width="24" height="25" viewBox="0 0 24 25" fill="none" xmlns="http://www.w3.org/2000/svg">
<g clip-path="url(#clip0_4735_11903)">
<path d="M24 12.1064C24 5.47902 18.6274 0.106445 12 0.106445C5.37258 0.106445 0 5.47902 0 12.1064C0 18.0959 4.3882 23.0604 10.125 23.9607V15.5752H7.07812V12.1064H10.125V9.4627C10.125 6.4552 11.9166 4.79395 14.6576 4.79395C15.9701 4.79395 17.3438 5.02832 17.3438 5.02832V7.98145H15.8306C14.34 7.98145 13.875 8.90652 13.875 9.85645V12.1064H17.2031L16.6711 15.5752H13.875V23.9607C19.6118 23.0604 24 18.0959 24 12.1064Z" fill="white" fill-opacity="0.45"/>
</g>
<defs>
<clipPath id="clip0_4735_11903">
<rect width="24" height="24" fill="white" transform="translate(0 0.106445)"/>
</clipPath>
</defs>
</svg>
