<svg width="24" height="25" viewBox="0 0 24 25" fill="none" xmlns="http://www.w3.org/2000/svg">
<g clip-path="url(#clip0_4735_11905)">
<path d="M22.2234 0.106445H1.77187C0.792187 0.106445 0 0.879883 0 1.83613V22.3721C0 23.3283 0.792187 24.1064 1.77187 24.1064H22.2234C23.2031 24.1064 24 23.3283 24 22.3768V1.83613C24 0.879883 23.2031 0.106445 22.2234 0.106445ZM7.12031 20.558H3.55781V9.10176H7.12031V20.558ZM5.33906 7.54082C4.19531 7.54082 3.27188 6.61738 3.27188 5.47832C3.27188 4.33926 4.19531 3.41582 5.33906 3.41582C6.47813 3.41582 7.40156 4.33926 7.40156 5.47832C7.40156 6.6127 6.47813 7.54082 5.33906 7.54082ZM20.4516 20.558H16.8937V14.9893C16.8937 13.6627 16.8703 11.9518 15.0422 11.9518C13.1906 11.9518 12.9094 13.4002 12.9094 14.8955V20.558H9.35625V9.10176H12.7687V10.6674H12.8156C13.2891 9.76738 14.4516 8.81582 16.1813 8.81582C19.7859 8.81582 20.4516 11.1877 20.4516 14.2721V20.558Z" fill="white" fill-opacity="0.45"/>
</g>
<defs>
<clipPath id="clip0_4735_11905">
<rect width="24" height="24" fill="white" transform="translate(0 0.106445)"/>
</clipPath>
</defs>
</svg>
