<svg width="24" height="25" viewBox="0 0 24 25" fill="none" xmlns="http://www.w3.org/2000/svg">
<path d="M23.7609 7.30625C23.7609 7.30625 23.5266 5.65156 22.8047 4.925C21.8906 3.96875 20.8688 3.96406 20.4 3.90781C17.0438 3.66406 12.0047 3.66406 12.0047 3.66406H11.9953C11.9953 3.66406 6.95625 3.66406 3.6 3.90781C3.13125 3.96406 2.10938 3.96875 1.19531 4.925C0.473438 5.65156 0.24375 7.30625 0.24375 7.30625C0.24375 7.30625 0 9.25156 0 11.1922V13.0109C0 14.9516 0.239062 16.8969 0.239062 16.8969C0.239062 16.8969 0.473437 18.5516 1.19062 19.2781C2.10469 20.2344 3.30469 20.2016 3.83906 20.3047C5.76094 20.4875 12 20.5438 12 20.5438C12 20.5438 17.0438 20.5344 20.4 20.2953C20.8688 20.2391 21.8906 20.2344 22.8047 19.2781C23.5266 18.5516 23.7609 16.8969 23.7609 16.8969C23.7609 16.8969 24 14.9562 24 13.0109V11.1922C24 9.25156 23.7609 7.30625 23.7609 7.30625ZM9.52031 15.2188V8.47344L16.0031 11.8578L9.52031 15.2188Z" fill="white" fill-opacity="0.45"/>
</svg>
