<svg width="50" height="40" viewBox="0 0 50 40" fill="none" xmlns="http://www.w3.org/2000/svg">
<g filter="url(#filter0_d_243_139)">
<path fill-rule="evenodd" clip-rule="evenodd" d="M29.4372 11.2404C25.1615 11.2404 21.6836 14.7159 21.6836 18.9898C21.6836 23.264 25.1612 26.7405 29.4372 26.7405C33.713 26.7405 37.1915 23.2643 37.1915 18.9898C37.1915 14.7157 33.7139 11.2398 29.4372 11.2398V11.2404ZM29.4372 12.2916C31.2155 12.2895 32.9215 12.9944 34.1787 14.2513C35.4361 15.5079 36.1415 17.2131 36.1396 18.9907C36.1415 20.768 35.4361 22.4732 34.1787 23.7301C32.9214 24.9867 31.2154 25.6919 29.4372 25.6895C27.6592 25.6916 25.9535 24.9864 24.6962 23.7298C23.4388 22.473 22.7334 20.768 22.7355 18.9907C22.7334 17.2134 23.4388 15.5081 24.6962 14.2515C25.9535 12.9947 27.6592 12.2895 29.4372 12.2916Z" fill="#FDBA2B"/>
<path fill-rule="evenodd" clip-rule="evenodd" d="M29.437 16.1353L30.8178 17.1386L32.1979 18.1405L31.1434 21.3838H27.7317L27.204 19.7622L26.6768 18.1406L28.0576 17.1379L29.437 16.1353Z" fill="#FDBA2B"/>
<path fill-rule="evenodd" clip-rule="evenodd" d="M29.1281 15.7098L27.7492 16.7131L26.3683 17.7145C26.184 17.8483 26.1068 18.0854 26.177 18.3021L26.7038 19.9238L27.2317 21.5461C27.3024 21.7623 27.5038 21.9086 27.7313 21.9088H31.1436C31.3711 21.9088 31.573 21.7626 31.6437 21.5461L32.1716 19.9238L32.6984 18.3021H32.6982C32.7688 18.0857 32.6921 17.8486 32.5082 17.7145L31.1274 16.7126L29.7462 15.7093C29.5619 15.5755 29.3123 15.5755 29.1281 15.7093L29.1281 15.7098ZM29.4375 16.7842L30.5094 17.5636L31.58 18.3402L31.1702 19.5999L30.7603 20.8577H28.1142L27.7043 19.5992L27.2951 18.3407L28.367 17.5625L29.4375 16.7842Z" fill="#FDBA2B"/>
<path fill-rule="evenodd" clip-rule="evenodd" d="M29.4366 16.1353V13.7429V16.1353ZM32.1975 18.1405L34.4744 17.4008L32.1975 18.1405ZM31.1427 21.384L32.5501 23.3198L31.1427 21.384ZM27.7309 21.384L26.3235 23.3198L27.7309 21.384ZM26.6764 18.1404L24.4002 17.4007L26.6764 18.1404ZM35.2242 23.3197H32.5506L30.9733 26.0504M23.6512 23.3197H26.3241L27.9014 26.0504M36.6424 19.5672L34.4747 17.4004L34.8238 14.1735L36.6424 19.5672ZM32.0293 12.2468L29.4376 13.7427L26.8455 12.2468M23.9777 14.2568L24.4005 17.4005L22.249 19.7424L23.9777 14.2568Z" fill="#FDBA2B"/>
<path fill-rule="evenodd" clip-rule="evenodd" d="M26.7094 11.7386C26.5749 11.7748 26.4604 11.8628 26.3906 11.9832C26.3207 12.1041 26.3017 12.2478 26.3378 12.3825C26.3737 12.5173 26.462 12.6323 26.5829 12.702L28.9109 14.0448V16.1358C28.9116 16.4257 29.1468 16.6604 29.437 16.6604C29.7269 16.66 29.9619 16.4254 29.9626 16.1358V14.0462L32.2918 12.7023V12.702C32.5432 12.5567 32.6294 12.2353 32.4841 11.9839C32.339 11.7325 32.0176 11.6464 31.7662 11.791L29.437 13.1361L27.1085 11.791C26.9876 11.7212 26.8442 11.7025 26.7094 11.7386L26.7094 11.7386ZM34.7666 13.6506C34.521 13.6774 34.3271 13.8713 34.3006 14.1166L33.987 17.0057L32.035 17.6402V17.6405C31.7592 17.7304 31.6082 18.0264 31.6977 18.3023C31.7876 18.5779 32.0839 18.7288 32.3597 18.6396L34.3307 18.0008L36.2698 19.9397C36.4425 20.1132 36.712 20.1446 36.9202 20.0155C37.1282 19.8866 37.2198 19.6312 37.1409 19.3993L35.3225 14.0056C35.2436 13.7716 35.0124 13.6239 34.7666 13.6507L34.7666 13.6506ZM24.0225 13.733L24.0228 13.7333C23.7772 13.7117 23.5495 13.8633 23.4751 14.0983L21.7468 19.5844H21.7471C21.6729 19.8197 21.7722 20.0746 21.9858 20.1979C22.1992 20.3211 22.4699 20.2798 22.6365 20.0981L24.5601 18.0055L26.514 18.6396C26.79 18.729 27.0867 18.5783 27.1766 18.3023C27.2658 18.0264 27.1147 17.7302 26.8388 17.6405L24.8779 17.0029L24.4986 14.1861H24.4983C24.4652 13.9429 24.2681 13.7549 24.0232 13.7333L24.0225 13.733ZM35.0893 16.608L35.4266 17.6076L35.0245 17.2064L35.0893 16.608ZM23.7707 16.6616L23.8461 17.2266L23.4601 17.6463L23.7707 16.6616ZM27.6486 20.8644C27.511 20.8864 27.3878 20.962 27.3058 21.0745L26.0558 22.7935H23.6507V22.7938C23.3603 22.7938 23.1249 23.0287 23.1246 23.3191C23.1244 23.4586 23.1796 23.5924 23.2781 23.691C23.3767 23.7898 23.5106 23.8454 23.65 23.8454H26.0196L27.4448 26.3125V26.3127C27.5147 26.4336 27.6298 26.5221 27.7648 26.558C27.9 26.5942 28.0436 26.5751 28.1645 26.505C28.4153 26.3594 28.5009 26.0383 28.3559 25.7873L26.9501 23.353L28.1563 21.6925C28.3265 21.4578 28.2748 21.1296 28.0405 20.9587C27.9276 20.8765 27.7865 20.8425 27.6485 20.8643L27.6486 20.8644ZM31.2255 20.8644C31.0875 20.8425 30.9464 20.8766 30.8335 20.9587C30.5992 21.1296 30.5473 21.4578 30.7177 21.6926L31.9232 23.353L30.5182 25.7874C30.3729 26.0388 30.4591 26.3604 30.7105 26.5057C30.9621 26.6503 31.2835 26.5639 31.4286 26.3127L32.8538 23.8457H35.2234V23.8455C35.363 23.8457 35.4971 23.7903 35.5959 23.6915C35.6947 23.5926 35.7501 23.4588 35.7501 23.3192C35.7497 23.0288 35.5142 22.7938 35.2238 22.7938H32.8181L31.5685 21.0747L31.5688 21.0745C31.4866 20.9618 31.3634 20.8862 31.2256 20.8644L31.2255 20.8644Z" fill="#FDBA2B"/>
<path fill-rule="evenodd" clip-rule="evenodd" d="M29.5184 9.52583L18.5213 9.54039H18.5215C18.2424 9.54062 17.975 9.65166 17.7779 9.84909C17.5807 10.0465 17.4699 10.3141 17.4696 10.593C17.4696 10.8721 17.5804 11.1395 17.7779 11.337C17.975 11.5341 18.2424 11.6449 18.5215 11.6449H21.151C21.4299 11.6449 21.6975 11.7558 21.8947 11.9529C22.0919 12.1501 22.2027 12.4178 22.2027 12.6966C22.2027 12.9755 22.0919 13.2431 21.8947 13.4403C21.6975 13.6378 21.4299 13.7486 21.151 13.7486H16.4179C16.139 13.7486 15.8714 13.8594 15.6742 14.0566C15.4771 14.2537 15.3662 14.5214 15.3662 14.8002C15.3662 15.0791 15.4771 15.3468 15.6742 15.5439C15.8714 15.7411 16.139 15.8519 16.4179 15.8519H17.4696C17.7487 15.8519 18.0161 15.9627 18.2133 16.1602C18.4107 16.3574 18.5215 16.6247 18.5215 16.9039C18.5215 17.1827 18.4107 17.4504 18.2133 17.6476C18.0161 17.8447 17.7487 17.9555 17.4696 17.9555H13.2626C12.9837 17.9555 12.7161 18.0664 12.5189 18.2635C12.3217 18.461 12.2109 18.7284 12.2109 19.0072C12.2109 19.2864 12.3217 19.5537 12.5189 19.7512C12.7161 19.9484 12.9837 20.0592 13.2626 20.0592H16.4179C16.6968 20.0592 16.9644 20.17 17.1616 20.3672C17.3588 20.5643 17.4696 20.832 17.4696 21.1109C17.4696 21.3897 17.3588 21.6574 17.1616 21.8545C16.9644 22.0517 16.6968 22.1628 16.4179 22.1628H15.3662C15.0871 22.1628 14.8197 22.2736 14.6226 22.4708C14.4251 22.668 14.3143 22.9356 14.3143 23.2145C14.3143 23.4933 14.4251 23.761 14.6226 23.9582C14.8197 24.1553 15.0871 24.2662 15.3662 24.2662H20.0993H20.0991C20.3782 24.2662 20.6456 24.377 20.8428 24.5744C21.0402 24.7716 21.151 25.039 21.151 25.3181C21.151 25.597 21.0402 25.8643 20.8428 26.0618C20.6456 26.259 20.3782 26.3698 20.0991 26.3698H18.5213H18.5215C18.2424 26.3698 17.975 26.4806 17.7779 26.6778C17.5804 26.8752 17.4696 27.1426 17.4696 27.4215C17.4696 27.7006 17.5804 27.968 17.7779 28.1651C17.975 28.3626 18.2424 28.4734 18.5215 28.4734H29.5186C34.7108 28.4734 38.958 24.2286 38.958 18.992C38.958 13.7551 34.7111 9.50993 29.5186 9.52616L29.5184 9.52583ZM29.4721 11.7665C31.3893 11.7665 33.2279 12.5278 34.5834 13.8828C35.9391 15.2381 36.7006 17.0757 36.7006 18.992C36.7004 20.9083 35.9388 22.7462 34.5834 24.1012C33.2277 25.4561 31.3891 26.2172 29.4721 26.2172C27.5552 26.2172 25.7166 25.4561 24.3611 24.1012C23.0054 22.7462 22.2439 20.9083 22.2439 18.992C22.2439 17.0757 23.0054 15.2381 24.3609 13.8828C25.7166 12.5278 27.5552 11.7665 29.4722 11.7665H29.4721Z" fill="#FDBA2B"/>
<path fill-rule="evenodd" clip-rule="evenodd" d="M29.5174 9L18.5215 9.01456C17.6567 9.01596 16.9447 9.72844 16.9445 10.5933C16.9445 11.4584 17.6569 12.1711 18.5222 12.1711H21.1517C21.4487 12.1711 21.6775 12.4004 21.6775 12.6969C21.6775 12.9939 21.4484 13.2228 21.1517 13.2228H16.4186C15.5535 13.2228 14.8409 13.9352 14.8409 14.8005C14.8409 15.6656 15.5533 16.3783 16.4186 16.3783H17.4703C17.7673 16.3783 17.9962 16.6076 17.9962 16.9041C17.9962 17.2011 17.767 17.43 17.4703 17.43H13.2633C12.3982 17.43 11.6855 18.1424 11.6855 19.0078C11.6855 19.8728 12.398 20.5855 13.2633 20.5855H16.4186C16.7156 20.5855 16.9445 20.8149 16.9445 21.1114C16.9445 21.4083 16.7154 21.6372 16.4186 21.6372H15.3669C14.5018 21.6372 13.7892 22.3497 13.7892 23.215C13.7892 24.0801 14.5016 24.7928 15.3669 24.7928H20.1C20.397 24.7928 20.6259 25.0221 20.6259 25.3186C20.6259 25.6156 20.3967 25.8445 20.1 25.8445H18.5222C17.6572 25.8445 16.9445 26.5569 16.9445 27.4222C16.9445 28.2873 17.6569 29 18.5222 29H29.5193C34.9982 29 39.4845 24.5137 39.4845 18.9927C39.4845 13.4721 34.9982 8.98487 29.5187 9.00049L29.5174 9ZM29.52 10.0517C34.4246 10.0369 38.4317 14.0396 38.4317 18.9916C38.4317 23.9442 34.4244 27.9472 29.5182 27.9472H18.5211C18.2241 27.9472 17.9953 27.7179 17.9953 27.4214C17.9953 27.1244 18.2244 26.8955 18.5211 26.8955H20.0989C20.964 26.8955 21.6766 26.1831 21.6766 25.3178C21.6766 24.4527 20.9642 23.74 20.0989 23.74H15.3658C15.0688 23.74 14.8399 23.5106 14.8399 23.2141C14.8399 22.9172 15.0691 22.6883 15.3658 22.6883H16.4175C17.2826 22.6883 17.9953 21.9759 17.9953 21.1105C17.9953 20.2454 17.2828 19.5328 16.4175 19.5328H13.2622C12.9652 19.5328 12.7363 19.3034 12.7363 19.0069C12.7363 18.7099 12.9654 18.4811 13.2622 18.4811H17.4692C18.3343 18.4811 19.0469 17.7686 19.0469 16.9033C19.0469 16.0382 18.3345 15.3255 17.4692 15.3255H16.4175C16.1205 15.3255 15.8916 15.0962 15.8916 14.7997C15.8916 14.5027 16.1208 14.2738 16.4175 14.2738H21.1506C22.0156 14.2738 22.7283 13.5614 22.7283 12.6961C22.7283 11.831 22.0159 11.1183 21.1506 11.1183H18.5211C18.2241 11.1183 17.9953 10.8889 17.9953 10.5924C17.9953 10.2952 18.2246 10.0657 18.5216 10.0652L29.52 10.0517ZM29.4732 11.2407C25.197 11.2407 21.719 14.7172 21.719 18.9919C21.719 23.2665 25.1968 26.7432 29.4732 26.7432C33.7495 26.7432 37.2275 23.267 37.2275 18.9919C37.2275 14.7171 33.7496 11.2407 29.4732 11.2407ZM29.4732 12.2924C33.1814 12.2924 36.1758 15.2857 36.1758 18.9919C36.1758 22.6982 33.1813 25.6915 29.4732 25.6915C25.7651 25.6915 22.7707 22.6984 22.7707 18.9919C22.7707 15.2855 25.7652 12.2924 29.4732 12.2924Z" fill="#FDBA2B"/>
<path fill-rule="evenodd" clip-rule="evenodd" d="M11.55 9.53305H13.2543C13.8217 9.53305 14.2788 9.99011 14.2788 10.5587V10.6202C14.279 10.892 14.171 11.1528 13.979 11.345C13.7867 11.5371 13.5259 11.6451 13.2541 11.6448H11.5501C11.2782 11.6451 11.0174 11.5371 10.8252 11.345C10.6331 11.1528 10.5252 10.892 10.5254 10.6202V10.5587C10.5254 9.99032 10.9825 9.53305 11.5489 9.53305H11.55Z" fill="#FDBA2B"/>
<path fill-rule="evenodd" clip-rule="evenodd" d="M11.5503 9.00722C10.6996 9.00722 10 9.7077 10 10.5575V10.6202C10 11.4698 10.6996 12.1705 11.5503 12.1705H13.2546C14.1042 12.1705 14.8049 11.47 14.8049 10.6202V10.5575C14.8049 9.70794 14.1044 9.00722 13.2546 9.00722H11.5503ZM11.5503 10.0596H13.2546H13.2544C13.3875 10.0563 13.5163 10.1078 13.6105 10.2017C13.7048 10.2958 13.7563 10.4244 13.7532 10.5575V10.6202V10.62C13.7567 10.7533 13.7051 10.8822 13.6109 10.9763C13.5166 11.0707 13.3877 11.1221 13.2544 11.1188H11.5503C11.417 11.1221 11.2881 11.0707 11.1937 10.9763C11.0996 10.8822 11.0479 10.7533 11.0515 10.62V10.5573V10.5575C11.0479 10.4242 11.0996 10.2953 11.1937 10.201C11.2881 10.1068 11.417 10.0552 11.5503 10.0587L11.5503 10.0596Z" fill="#FDBA2B"/>
<path fill-rule="evenodd" clip-rule="evenodd" d="M13.2271 26.3685C12.6458 26.3685 12.1768 26.8375 12.1768 27.4199C12.1768 28.0033 12.6458 28.4723 13.2282 28.4723H13.228C13.5071 28.4728 13.7752 28.362 13.9724 28.1646C14.1698 27.9672 14.2801 27.6991 14.2794 27.4199C14.2794 26.8375 13.8104 26.3685 13.228 26.3685L13.2271 26.3685Z" fill="#FDBA2B"/>
<path fill-rule="evenodd" clip-rule="evenodd" d="M13.2274 25.842C14.092 25.842 14.8054 26.5554 14.8054 27.42C14.8054 28.2846 14.093 28.9981 13.2274 28.9981C12.3628 28.9981 11.6494 28.2856 11.6494 27.42C11.6494 26.5554 12.3628 25.842 13.2274 25.842ZM13.2274 26.8944C12.9274 26.8944 12.7018 27.12 12.7018 27.4212C12.7018 27.7212 12.9274 27.9468 13.2286 27.9468H13.2284C13.369 27.9501 13.5047 27.8957 13.6042 27.7961C13.7035 27.6966 13.7577 27.5607 13.754 27.42C13.754 27.12 13.5284 26.8933 13.2272 26.8933L13.2274 26.8944Z" fill="#FDBA2B"/>
</g>
<defs>
<filter id="filter0_d_243_139" x="0" y="0" width="49.4844" height="40" filterUnits="userSpaceOnUse" color-interpolation-filters="sRGB">
<feFlood flood-opacity="0" result="BackgroundImageFix"/>
<feColorMatrix in="SourceAlpha" type="matrix" values="0 0 0 0 0 0 0 0 0 0 0 0 0 0 0 0 0 0 127 0" result="hardAlpha"/>
<feOffset dy="1"/>
<feGaussianBlur stdDeviation="5"/>
<feComposite in2="hardAlpha" operator="out"/>
<feColorMatrix type="matrix" values="0 0 0 0 0.992157 0 0 0 0 0.729412 0 0 0 0 0.168627 0 0 0 0.5 0"/>
<feBlend mode="normal" in2="BackgroundImageFix" result="effect1_dropShadow_243_139"/>
<feBlend mode="normal" in="SourceGraphic" in2="effect1_dropShadow_243_139" result="shape"/>
</filter>
</defs>
</svg>
