<svg width="40" height="40" viewBox="0 0 40 40" fill="none" xmlns="http://www.w3.org/2000/svg">
<g filter="url(#filter0_d_243_199)">
<path d="M25 12.0001H20.9999V9.99999C20.9999 9.64273 20.8094 9.3126 20.5 9.13397C20.1907 8.95534 19.8093 8.95534 19.4999 9.13397C19.1905 9.3126 19 9.64273 19 9.99999V12.0001H14.9999C13.6743 12.0016 12.4035 12.5289 11.4662 13.4662C10.5289 14.4036 10.0015 15.6744 10 17V26C10 26.7957 10.3161 27.5587 10.8786 28.1214C11.4412 28.6839 12.2043 29 13 29H13.93C14.9348 29.0025 15.8736 28.5008 16.4299 27.664L17.2429 26.4451L17.243 26.445C17.4275 26.1684 17.7374 26.0017 18.0699 26H21.93C22.2642 26 22.5764 26.1669 22.7619 26.445L23.5749 27.6639L23.575 27.664C24.1303 28.4992 25.067 29.0008 26.07 29H26.9999C27.7956 29 28.5587 28.6839 29.1214 28.1214C29.6839 27.5587 29.9999 26.7957 29.9999 26V17C29.9984 15.6744 29.4711 14.4036 28.5338 13.4662C27.5964 12.5289 26.3256 12.0016 25 12.0001H25ZM18.0002 20.0002L17.0001 20.0001V21.0002C17.0001 21.3574 16.8094 21.6876 16.5 21.8662C16.1906 22.0448 15.8094 22.0448 15.5 21.8662C15.1907 21.6876 15 21.3574 15 21.0002V20.0001H14C13.6428 20.0001 13.3127 19.8095 13.134 19.5002C12.9554 19.1908 12.9554 18.8094 13.134 18.5C13.3127 18.1907 13.6428 18.0002 14 18.0002H15V17C15 16.6428 15.1907 16.3127 15.5 16.134C15.8094 15.9554 16.1906 15.9554 16.5 16.134C16.8094 16.3127 17.0001 16.6428 17.0001 17V18H18V18.0002C18.3573 18.0002 18.6874 18.1907 18.866 18.5C19.0446 18.8094 19.0446 19.1908 18.866 19.5002C18.6874 19.8095 18.3573 20 18 20L18.0002 20.0002ZM25 21.0002C24.4695 21.0002 23.9609 20.7894 23.5858 20.4144C23.2108 20.0392 23 19.5305 23 19.0001C23 18.4697 23.2108 17.961 23.5858 17.5858C23.9609 17.2108 24.4695 17 25 17C25.5304 17 26.0392 17.2108 26.4142 17.5858C26.7893 17.961 26.9999 18.4697 26.9999 19.0001C26.9999 19.5305 26.7893 20.0392 26.4142 20.4144C26.0392 20.7894 25.5304 21.0002 25 21.0002Z" fill="#FDBA2B"/>
</g>
<defs>
<filter id="filter0_d_243_199" x="0" y="0" width="40" height="40" filterUnits="userSpaceOnUse" color-interpolation-filters="sRGB">
<feFlood flood-opacity="0" result="BackgroundImageFix"/>
<feColorMatrix in="SourceAlpha" type="matrix" values="0 0 0 0 0 0 0 0 0 0 0 0 0 0 0 0 0 0 127 0" result="hardAlpha"/>
<feOffset dy="1"/>
<feGaussianBlur stdDeviation="5"/>
<feComposite in2="hardAlpha" operator="out"/>
<feColorMatrix type="matrix" values="0 0 0 0 0.992157 0 0 0 0 0.729412 0 0 0 0 0.168627 0 0 0 0.5 0"/>
<feBlend mode="normal" in2="BackgroundImageFix" result="effect1_dropShadow_243_199"/>
<feBlend mode="normal" in="SourceGraphic" in2="effect1_dropShadow_243_199" result="shape"/>
</filter>
</defs>
</svg>
