<svg width="20" height="20" viewBox="0 0 20 20" fill="none" xmlns="http://www.w3.org/2000/svg">
<path d="M15 3.00005H10.9999V0.999989C10.9999 0.642735 10.8094 0.312601 10.5 0.133972C10.1907 -0.0446573 9.8093 -0.0446573 9.49992 0.133972C9.19053 0.312601 9.00003 0.642731 9.00003 0.999989V3.00005H4.9999C3.67433 3.00156 2.40352 3.52891 1.46619 4.46624C0.528859 5.40357 0.0015 6.67438 0 7.99995V17C0 17.7957 0.316072 18.5587 0.878574 19.1214C1.44125 19.6839 2.20432 20 3.00001 20H3.92997C4.93476 20.0025 5.87363 19.5008 6.42992 18.664L7.24288 17.4451L7.24305 17.445C7.42754 17.1684 7.73741 17.0017 8.06989 17H11.93C12.2642 17 12.5764 17.1669 12.7619 17.445L13.5749 18.6639L13.575 18.664C14.1303 19.4992 15.067 20.0008 16.07 20H16.9999C17.7956 20 18.5587 19.6839 19.1214 19.1214C19.6839 18.5587 19.9999 17.7957 19.9999 17V7.99995C19.9984 6.67438 19.4711 5.40357 18.5338 4.46624C17.5964 3.52891 16.3256 3.00155 15 3.00005H15ZM8.00017 11.0002L7.00005 11.0001V12.0002C7.00005 12.3574 6.80937 12.6876 6.49999 12.8662C6.19061 13.0448 5.80943 13.0448 5.50005 12.8662C5.19066 12.6876 4.99999 12.3574 4.99999 12.0002V11.0001H4.00004C3.64279 11.0001 3.31265 10.8095 3.13402 10.5002C2.95539 10.1908 2.95539 9.80943 3.13402 9.50005C3.31265 9.19066 3.64278 9.00016 4.00004 9.00016H4.99999V8.00004C4.99999 7.64279 5.19067 7.31266 5.50005 7.13403C5.80942 6.9554 6.19061 6.9554 6.49999 7.13403C6.80938 7.31266 7.00005 7.64279 7.00005 8.00004V8.99999H8V9.00016C8.35725 9.00016 8.68738 9.19067 8.86601 9.50004C9.04464 9.80942 9.04464 10.1908 8.86601 10.5002C8.68738 10.8095 8.35725 11 8 11L8.00017 11.0002ZM15 12.0002C14.4695 12.0002 13.9609 11.7894 13.5858 11.4144C13.2108 11.0392 13 10.5305 13 10.0001C13 9.46974 13.2108 8.96099 13.5858 8.58581C13.9609 8.21081 14.4695 8.00004 15 8.00004C15.5304 8.00004 16.0392 8.21081 16.4142 8.58581C16.7893 8.96098 16.9999 9.46974 16.9999 10.0001C16.9999 10.5305 16.7893 11.0392 16.4142 11.4144C16.0392 11.7894 15.5304 12.0002 15 12.0002Z" fill="#527EBF"/>
</svg>
