<svg width="20" height="20" viewBox="0 0 20 20" fill="none" xmlns="http://www.w3.org/2000/svg">
<path fill-rule="evenodd" clip-rule="evenodd" d="M19.2 5.60006V4.19201H19.2001C19.1994 3.51448 18.9337 2.86414 18.4597 2.37966C17.986 1.89536 17.3415 1.61554 16.664 1.6C16.4972 1.13267 16.1903 0.728395 15.7851 0.441967C15.3799 0.155712 14.8962 0.00125001 14.4001 0H13.6001C13.104 0.00125257 12.6202 0.155717 12.2151 0.441967C11.8099 0.728413 11.5029 1.13267 11.3361 1.6H7.86397C7.69716 1.13267 7.3902 0.728395 6.98502 0.441967C6.57985 0.155712 6.09611 0.00125001 5.60001 0H4.80001C4.30392 0.00125257 3.82018 0.155717 3.415 0.441967C3.00979 0.728413 2.70284 1.13267 2.53605 1.6C1.85856 1.61555 1.21408 1.89536 0.740345 2.37966C0.266428 2.86414 0.000714287 3.51452 0 4.19201V5.60006H19.2ZM0 7.20002V17.488C0.00107145 18.1539 0.26625 18.7921 0.736962 19.263C1.20787 19.7338 1.84608 19.9989 2.51196 20H16.688C17.3539 19.9989 17.9921 19.7339 18.463 19.263C18.9339 18.7921 19.1989 18.1539 19.2 17.488V7.20002H0ZM16 14.4C15.9983 15.0359 15.7447 15.6454 15.295 16.095C14.8454 16.5447 14.2359 16.7983 13.6 16.8H12C11.3641 16.7983 10.7547 16.5447 10.305 16.095C9.85538 15.6454 9.6018 15.0359 9.60002 14.4V12.8C9.60181 12.1641 9.85538 11.5547 10.305 11.105C10.7547 10.6554 11.3641 10.4018 12 10.4H13.6C14.2359 10.4018 14.8454 10.6554 15.295 11.105C15.7447 11.5547 15.9983 12.1641 16 12.8V14.4ZM12 12H13.6C14.0418 12 14.4 12.4418 14.4 12.8V14.4C14.4 14.8418 14.0418 15.2 13.6 15.2H12C11.5582 15.2 11.2 14.7582 11.2 14.4V12.8C11.2 12.3582 11.5582 12 12 12Z" fill="#527EBF"/>
</svg>
