<svg width="40" height="40" viewBox="0 0 40 40" fill="none" xmlns="http://www.w3.org/2000/svg">
<g filter="url(#filter0_d_243_1264)">
<path fill-rule="evenodd" clip-rule="evenodd" d="M29.2 14.6001V13.192H29.2001C29.1994 12.5145 28.9337 11.8641 28.4597 11.3797C27.986 10.8954 27.3415 10.6155 26.664 10.6C26.4972 10.1327 26.1903 9.72839 25.7851 9.44197C25.3799 9.15571 24.8962 9.00125 24.4001 9H23.6001C23.104 9.00125 22.6202 9.15572 22.2151 9.44197C21.8099 9.72841 21.5029 10.1327 21.3361 10.6H17.864C17.6972 10.1327 17.3902 9.72839 16.985 9.44197C16.5799 9.15571 16.0961 9.00125 15.6 9H14.8C14.3039 9.00125 13.8202 9.15572 13.415 9.44197C13.0098 9.72841 12.7028 10.1327 12.5361 10.6C11.8586 10.6155 11.2141 10.8954 10.7403 11.3797C10.2664 11.8641 10.0007 12.5145 10 13.192V14.6001H29.2ZM10 16.2V26.488C10.0011 27.1539 10.2662 27.7921 10.737 28.263C11.2079 28.7338 11.8461 28.9989 12.512 29H26.688C27.3539 28.9989 27.9921 28.7339 28.463 28.263C28.9339 27.7921 29.1989 27.1539 29.2 26.488V16.2H10ZM26 23.4C25.9983 24.0359 25.7447 24.6454 25.295 25.095C24.8454 25.5447 24.2359 25.7983 23.6 25.8H22C21.3641 25.7983 20.7547 25.5447 20.305 25.095C19.8554 24.6454 19.6018 24.0359 19.6 23.4V21.8C19.6018 21.1641 19.8554 20.5547 20.305 20.105C20.7547 19.6554 21.3641 19.4018 22 19.4H23.6C24.2359 19.4018 24.8454 19.6554 25.295 20.105C25.7447 20.5547 25.9983 21.1641 26 21.8V23.4ZM22 21H23.6C24.0418 21 24.4 21.4418 24.4 21.8V23.4C24.4 23.8418 24.0418 24.2 23.6 24.2H22C21.5582 24.2 21.2 23.7582 21.2 23.4V21.8C21.2 21.3582 21.5582 21 22 21Z" fill="#FDBA2B"/>
</g>
<defs>
<filter id="filter0_d_243_1264" x="0" y="0" width="39.2002" height="40" filterUnits="userSpaceOnUse" color-interpolation-filters="sRGB">
<feFlood flood-opacity="0" result="BackgroundImageFix"/>
<feColorMatrix in="SourceAlpha" type="matrix" values="0 0 0 0 0 0 0 0 0 0 0 0 0 0 0 0 0 0 127 0" result="hardAlpha"/>
<feOffset dy="1"/>
<feGaussianBlur stdDeviation="5"/>
<feComposite in2="hardAlpha" operator="out"/>
<feColorMatrix type="matrix" values="0 0 0 0 0.992157 0 0 0 0 0.729412 0 0 0 0 0.168627 0 0 0 0.5 0"/>
<feBlend mode="normal" in2="BackgroundImageFix" result="effect1_dropShadow_243_1264"/>
<feBlend mode="normal" in="SourceGraphic" in2="effect1_dropShadow_243_1264" result="shape"/>
</filter>
</defs>
</svg>
