<svg width="20" height="20" viewBox="0 0 20 20" fill="none" xmlns="http://www.w3.org/2000/svg">
<path d="M6.47011 2.42823C6.51804 2.28075 6.64895 2.1857 6.80351 2.1857H6.804L8.56126 2.18891C8.73399 2.18634 8.88518 2.0781 8.93648 1.91936L9.47721 0.243822C9.52497 0.0958548 9.65589 0 9.81077 0C9.96566 0 10.0966 0.0955336 10.1443 0.243822L10.6856 1.91936C10.7378 2.08083 10.8869 2.18923 11.0571 2.18923L12.8117 2.18602C12.9674 2.18409 13.1035 2.27689 13.1524 2.42936C13.1992 2.57572 13.1508 2.72529 13.0257 2.8197L11.5974 3.85306C11.4598 3.95262 11.4028 4.12792 11.4558 4.28925L12.0038 5.9656C12.0497 6.11148 12.0003 6.26347 11.8782 6.35385C11.7531 6.44649 11.586 6.44681 11.4625 6.35482L10.0404 5.31746C9.90578 5.21936 9.71648 5.21952 9.58185 5.31746L8.16205 6.35305C8.09916 6.40033 8.0263 6.42414 7.95329 6.42414C7.88172 6.42414 7.81031 6.40162 7.74742 6.35611C7.62133 6.26508 7.57115 6.11068 7.6194 5.96303L8.16687 4.28927C8.21963 4.12763 8.16269 3.95216 8.02502 3.85263L6.60423 2.82441C6.47427 2.73628 6.42088 2.58011 6.47009 2.42829L6.47011 2.42823ZM3.59862 12.7264C4.56491 12.7264 5.35119 11.9404 5.35119 10.9741C5.35119 10.0078 4.56487 9.22157 3.59862 9.22157C2.63237 9.22157 1.84634 10.0079 1.84634 10.9741C1.84618 11.9404 2.63233 12.7264 3.59862 12.7264ZM16.023 14.0665C14.838 14.0665 13.7672 14.6751 13.0851 15.7364L13.0479 15.794L13.0959 15.8429C13.1115 15.8588 13.1263 15.8754 13.1407 15.8921L13.2229 15.983C13.293 16.0606 13.3606 16.1406 13.4259 16.2228L13.4447 16.2461C13.4655 16.2717 13.4859 16.2969 13.5053 16.3233C13.5319 16.3585 13.5573 16.3944 13.5906 16.4409C13.624 16.4877 13.6565 16.5348 13.6922 16.5883C13.7131 16.6199 13.734 16.6512 13.7543 16.6835C13.8061 16.7653 13.8561 16.8484 13.9039 16.9336L13.9262 16.9755C13.9693 17.0536 14.0095 17.1334 14.0488 17.214C14.061 17.2392 14.0728 17.2643 14.0848 17.2902C14.122 17.37 14.1574 17.4509 14.1902 17.5323L14.2101 17.5805C14.2477 17.676 14.2828 17.7732 14.315 17.8716L14.3404 17.9533C14.3634 18.0271 14.3848 18.1013 14.405 18.1766L14.4385 18.2986H19.518C19.5717 18.2986 19.6155 18.2565 19.6177 18.2029V18.2028C19.6203 18.1421 19.6214 18.0807 19.6208 18.0194C19.6214 15.8403 18.0073 14.0665 16.0231 14.0665L16.023 14.0665ZM13.8985 18.225C13.8672 18.1161 13.8318 18.0083 13.7932 17.9017L13.7749 17.8509C13.7356 17.7455 13.6925 17.6419 13.6462 17.5393L13.6267 17.4972C13.5315 17.292 13.4204 17.0916 13.2891 16.8894L13.2631 16.8492C13.2066 16.7644 13.1468 16.6821 13.0852 16.6017C13.0654 16.5761 13.0455 16.5504 13.0254 16.5256C12.9659 16.4508 12.9044 16.3781 12.8407 16.3077C12.8235 16.2887 12.8055 16.27 12.7874 16.2514L12.7671 16.2305C12.7188 16.1796 12.6691 16.1304 12.6183 16.0817C11.8386 15.3369 10.8418 14.9264 9.81147 14.9264C8.78149 14.9264 7.78452 15.3367 7.00446 16.0818C6.95412 16.1297 6.90474 16.179 6.85666 16.2296L6.83108 16.2565C6.81436 16.2738 6.79763 16.2914 6.78123 16.3092C6.71818 16.3787 6.65771 16.4509 6.59916 16.5243C6.57842 16.5502 6.55783 16.576 6.53773 16.6024C6.47629 16.6822 6.41726 16.7636 6.36129 16.8475L6.32575 16.9029C6.26592 16.9949 6.2085 17.0883 6.15302 17.1879C6.10155 17.281 6.05072 17.3815 5.99749 17.4954L5.97578 17.5412C5.92994 17.6425 5.88732 17.7456 5.84808 17.8503L5.8291 17.904C5.78809 18.0173 5.75431 18.121 5.72086 18.237C5.69078 18.3436 5.66537 18.4513 5.64221 18.5601C5.56742 18.912 5.52947 19.2711 5.52947 19.627C5.52947 19.6997 5.53108 19.7723 5.53397 19.845C5.53767 19.9318 5.60908 20 5.69609 20H13.9262C14.0135 20 14.0846 19.9318 14.0883 19.8445V19.8443C14.0912 19.7726 14.0929 19.7004 14.0934 19.6272C14.0934 19.2718 14.0558 18.9134 13.9812 18.5627C13.9577 18.4511 13.9315 18.341 13.8987 18.2249L13.8985 18.225ZM5.57459 17.2127C5.61223 17.1348 5.65179 17.0578 5.69265 16.9825L5.7187 16.9333C5.7655 16.8494 5.8152 16.7675 5.86618 16.6864C5.88516 16.6559 5.90526 16.626 5.92521 16.596L5.9355 16.5804C5.9659 16.5351 5.99662 16.4901 6.03071 16.4421C6.05902 16.4021 6.08749 16.3622 6.11708 16.3228C6.12995 16.3056 6.14346 16.2889 6.15713 16.272L6.179 16.2446C6.24961 16.155 6.32472 16.0661 6.40208 15.9802L6.48089 15.8929C6.49552 15.8765 6.51032 15.8598 6.5256 15.8437L6.57304 15.7948L6.53605 15.7374C5.85398 14.676 4.78331 14.0671 3.59844 14.0671C1.61411 14.0671 0 15.8408 0 18.0209C0 18.082 0.00144717 18.1433 0.00402049 18.2034C0.00595047 18.2573 0.049698 18.2996 0.103738 18.2996H5.18407L5.2 18.2336C5.20257 18.2221 5.20611 18.2111 5.20965 18.1997L5.21688 18.1749C5.23634 18.1021 5.25757 18.0295 5.27993 17.958L5.30695 17.8714C5.33911 17.7738 5.37353 17.6778 5.41116 17.5832L5.43368 17.5292C5.46585 17.4497 5.50027 17.3711 5.53597 17.2937L5.57459 17.2127ZM16.0235 12.7265C16.9898 12.7265 17.776 11.9405 17.776 10.9742C17.776 10.0079 16.9897 9.22161 16.0235 9.22161C15.0572 9.22161 14.2709 10.0079 14.2709 10.9742C14.2709 11.9404 15.0572 12.7265 16.0235 12.7265ZM9.81088 9.22161C8.64857 9.22161 7.70287 10.1671 7.70287 11.3296C7.70287 12.4921 8.64841 13.4376 9.81088 13.4376C10.9734 13.4376 11.9189 12.4918 11.9189 11.3296C11.9191 10.1674 10.9732 9.22161 9.81088 9.22161Z" fill="#FDBA2B"/>
</svg>
