<svg width="18" height="20" viewBox="0 0 18 20" fill="none" xmlns="http://www.w3.org/2000/svg">
<path fill-rule="evenodd" clip-rule="evenodd" d="M14.8075 0.329534C15.0185 0.540924 15.1371 0.82696 15.1371 1.12551V1.4613C15.1371 1.75987 15.0185 2.04604 14.8075 2.25728C14.7013 2.3633 14.5762 2.446 14.4401 2.50203V7.4765C14.4401 9.86891 12.9223 11.9066 10.7971 12.6793L11.0811 14.3853H12.5751C13.1888 14.3853 13.6863 14.8827 13.6863 15.4964V17.1055H14.0533C14.4369 17.1055 14.805 17.258 15.0766 17.529C15.3477 17.8004 15.5001 18.1683 15.5001 18.5523V18.5529C15.5001 18.9365 15.3476 19.3048 15.0766 19.5759C14.8052 19.8474 14.4369 19.9999 14.0533 19.9999H3.75811C3.37452 19.9999 3.00637 19.8474 2.73484 19.5759C2.46376 19.3048 2.31128 18.9365 2.31128 18.5529V18.5523C2.31128 18.1684 2.46377 17.8006 2.73484 17.529C3.00625 17.2579 3.37454 17.1055 3.75811 17.1055H4.12463V15.4964C4.12463 14.8827 4.62208 14.3853 5.23582 14.3853H6.72972L7.01376 12.6793C4.88863 11.9067 3.37061 9.86904 3.37061 7.4765V2.52603C3.20983 2.47094 3.06207 2.37965 2.93952 2.25728C2.72858 2.04589 2.60999 1.75985 2.60999 1.4613V1.12551C2.60999 0.826945 2.72858 0.540775 2.93952 0.329534C3.15091 0.118597 3.43695 0 3.73549 0H14.0115C14.3101 0 14.5963 0.118597 14.8075 0.329534ZM5.46821 7.12785C5.46821 5.23061 7.00843 3.6904 8.90566 3.6904C10.8029 3.6904 12.3431 5.23061 12.3431 7.12785C12.3431 9.02508 10.8029 10.5653 8.90566 10.5653C7.00843 10.5653 5.46821 9.02508 5.46821 7.12785ZM8.90567 5.03809C9.04685 5.03809 9.17918 5.10784 9.25886 5.22445H9.25874L9.74458 5.93692L10.5723 6.179C10.708 6.21868 10.815 6.32263 10.8588 6.45694C10.9026 6.59125 10.877 6.73869 10.7904 6.85042L10.2633 7.53284L10.2889 8.39477C10.2929 8.53596 10.2269 8.67043 10.1128 8.75346C9.9986 8.83665 9.85054 8.85786 9.7176 8.80993L8.90561 8.51932L8.09361 8.80993C7.96068 8.85771 7.81263 8.83649 7.69846 8.75346C7.58413 8.67028 7.5182 8.53596 7.52232 8.39477L7.54796 7.53284L7.02078 6.85042C6.93423 6.7387 6.90859 6.59126 6.9524 6.45694C6.9962 6.32263 7.10319 6.21868 7.23889 6.179L8.06663 5.93692L8.55247 5.22445C8.63215 5.10784 8.76448 5.03809 8.90567 5.03809ZM11.8073 12.7843C12.9953 12.1333 13.9406 11.0953 14.4744 9.83986C15.3627 10.3014 15.9729 11.0673 15.9729 11.0673C16.0939 11.2219 16.0939 11.4393 15.9729 11.5942C15.9729 11.5942 15.538 12.1521 14.8669 12.5976C14.395 12.9111 13.8101 13.1637 13.1806 13.1637C12.6835 13.1637 12.2145 13.0041 11.8073 12.7843ZM14.7106 9.38488C14.6921 9.37527 14.6736 9.36702 14.6545 9.35986C14.8484 8.76734 14.9534 8.13423 14.9534 7.47669V7.47639C15.4265 7.43334 15.8977 7.5205 16.3127 7.66C17.0759 7.91687 17.6406 8.34317 17.6406 8.34317C17.7975 8.46098 17.854 8.67132 17.7771 8.85219C17.7771 8.85219 17.5011 9.50347 16.9684 10.1076C16.7839 10.3168 16.5689 10.5189 16.3257 10.6899C16.1548 10.4902 15.5424 9.817 14.7106 9.38488ZM14.9535 6.96129C15.484 6.92131 16.0106 7.01731 16.4763 7.17361C16.6815 7.2426 16.8739 7.32303 17.0476 7.405C17.4488 6.64427 17.5618 5.88049 17.5618 5.88049C17.5892 5.68588 17.4805 5.49784 17.2982 5.42442C17.2982 5.42442 16.6425 5.15838 15.8386 5.10816C15.5541 5.09046 15.2522 5.10023 14.9535 5.15426L14.9535 6.96129ZM15.8708 4.59632C15.5755 4.57785 15.2639 4.58609 14.9535 4.63433L14.9535 2.54128C15.0721 2.50572 15.1912 2.47672 15.3084 2.45306C16.0978 2.29371 16.8001 2.38056 16.8001 2.38056C16.9948 2.40452 17.1487 2.55807 17.1723 2.75329C17.1723 2.75329 17.2595 3.45525 17.0998 4.24497C17.0647 4.42034 17.0168 4.59983 16.9539 4.77689C16.6668 4.70057 16.2866 4.62227 15.8708 4.59632ZM3.33674 9.83985C2.44846 10.3014 1.83822 11.0673 1.83822 11.0673C1.71718 11.2218 1.71718 11.4393 1.83822 11.5942C1.83822 11.5942 2.27307 12.1522 2.9442 12.5976C3.41598 12.9111 4.00104 13.1637 4.63048 13.1637C5.12761 13.1637 5.59666 13.0041 6.00385 12.7843C4.81608 12.1336 3.87034 11.0957 3.33674 9.83985ZM3.10063 9.3844C2.26878 9.81648 1.65642 10.4897 1.48547 10.6894V10.6894C1.24247 10.5184 1.02743 10.3164 0.84274 10.1071C0.310065 9.50298 0.0341051 8.8517 0.0341051 8.8517C-0.0428198 8.67084 0.0136536 8.46067 0.170559 8.34268C0.170559 8.34268 0.735294 7.91624 1.49845 7.65951C1.91345 7.52001 2.38464 7.43285 2.85779 7.4759V7.4762C2.85779 8.13374 2.9628 8.76685 3.15664 9.35937C3.13756 9.3667 3.11909 9.37479 3.10063 9.3844ZM0.763721 7.40488C0.937416 7.32277 1.12989 7.24249 1.33502 7.17349C1.8007 7.0172 2.32715 6.92119 2.85785 6.96118V5.15432C2.559 5.10029 2.25709 5.09037 1.97275 5.10823C1.169 5.15845 0.51314 5.42449 0.51314 5.42449C0.330895 5.49805 0.222223 5.6861 0.249543 5.88056C0.249543 5.88056 0.362643 6.64433 0.763756 7.40507L0.763721 7.40488ZM0.857146 4.77687C0.85714 4.77687 0.857135 4.77687 0.857129 4.77687L0.857152 4.77688C0.85715 4.77688 0.857148 4.77687 0.857146 4.77687ZM1.94022 4.59631C1.52444 4.62241 1.1444 4.70055 0.857146 4.77687C0.794263 4.59983 0.746491 4.42034 0.711234 4.24497C0.551578 3.45525 0.638733 2.75329 0.638733 2.75329C0.662236 2.55807 0.816089 2.40452 1.011 2.38056C1.011 2.38056 1.71328 2.29371 2.50269 2.45306C2.61991 2.47672 2.73896 2.50571 2.85756 2.54128V4.63431C2.54708 4.58608 2.23556 4.57784 1.94022 4.59631Z" fill="#FDBA2B"/>
</svg>
