<svg width="42" height="38" viewBox="0 0 42 38" fill="none" xmlns="http://www.w3.org/2000/svg">
<g filter="url(#filter0_d_243_203)">
<path d="M27.6696 11.1769V9H14.3306V11.1769H10V12.9137C10 15.9243 12.0147 18.5643 14.9095 19.3285L16.2063 19.6758C16.4147 19.9537 16.6231 20.2317 16.8547 20.4864C17.6884 21.3432 18.6841 21.8296 19.842 22.038V24.4233H18.0821L17.4106 26.9938H24.5896L23.9181 24.4233H22.158V22.038C23.3159 21.8296 24.3116 21.3432 25.1453 20.4864C25.3769 20.2317 25.6084 19.9538 25.7937 19.6758L27.0905 19.3285C29.9853 18.5412 32 15.9243 32 12.9137V11.1769H27.6696ZM11.5747 12.9137V12.7516H14.3306C14.3306 13.5158 14.4232 15.6927 15.2106 17.7537C13.0801 17.1286 11.5747 15.16 11.5747 12.9137V12.9137ZM30.4254 12.9137C30.4254 15.1601 28.9433 17.1285 26.7895 17.7538C27.5768 15.6696 27.6695 13.4927 27.6695 12.7516H30.4254V12.9137Z" fill="#FDBA2B"/>
</g>
<defs>
<filter id="filter0_d_243_203" x="0" y="0" width="42" height="37.9939" filterUnits="userSpaceOnUse" color-interpolation-filters="sRGB">
<feFlood flood-opacity="0" result="BackgroundImageFix"/>
<feColorMatrix in="SourceAlpha" type="matrix" values="0 0 0 0 0 0 0 0 0 0 0 0 0 0 0 0 0 0 127 0" result="hardAlpha"/>
<feOffset dy="1"/>
<feGaussianBlur stdDeviation="5"/>
<feComposite in2="hardAlpha" operator="out"/>
<feColorMatrix type="matrix" values="0 0 0 0 0.992157 0 0 0 0 0.729412 0 0 0 0 0.168627 0 0 0 0.5 0"/>
<feBlend mode="normal" in2="BackgroundImageFix" result="effect1_dropShadow_243_203"/>
<feBlend mode="normal" in="SourceGraphic" in2="effect1_dropShadow_243_203" result="shape"/>
</filter>
</defs>
</svg>
