<svg width="22" height="18" viewBox="0 0 22 18" fill="none" xmlns="http://www.w3.org/2000/svg">
<path d="M17.6696 2.1769V0H4.33055V2.1769H0V3.91375C0 6.92433 2.01471 9.56431 4.9095 10.3285L6.20631 10.6758C6.41469 10.9537 6.62307 11.2317 6.85473 11.4864C7.68842 12.3432 8.68414 12.8296 9.84204 13.038V15.4233H8.08207L7.41057 17.9938H14.5896L13.9181 15.4233H12.158V13.038C13.3159 12.8296 14.3116 12.3432 15.1453 11.4864C15.3769 11.2317 15.6084 10.9538 15.7937 10.6758L17.0905 10.3285C19.9853 9.54119 22 6.92429 22 3.91375V2.1769H17.6696ZM1.57475 3.91375V3.75156H4.33059C4.33059 4.51578 4.42315 6.69267 5.21064 8.7537C3.0801 8.12855 1.57475 6.16004 1.57475 3.91367V3.91375ZM20.4254 3.91375C20.4254 6.16008 18.9433 8.12851 16.7895 8.75378C17.5768 6.66964 17.6695 4.4927 17.6695 3.75164H20.4254V3.91375Z" fill="#527EBF"/>
</svg>
