<svg width="20" height="20" viewBox="0 0 20 20" fill="none" xmlns="http://www.w3.org/2000/svg">
<path fill-rule="evenodd" clip-rule="evenodd" d="M14.4445 6.66638H5.5556C4.94457 6.66638 4.44458 6.16639 4.44458 5.55521C4.44458 4.94418 4.94457 4.44418 5.5556 4.44418H14.4445C15.0555 4.44418 15.5555 4.94418 15.5555 5.55521C15.5555 6.16639 15.0555 6.66638 14.4445 6.66638ZM14.4445 11.1106H5.5556C4.94457 11.1106 4.44458 10.6106 4.44458 9.99961C4.44458 9.38858 4.94457 8.88858 5.5556 8.88858H14.4445C15.0555 8.88858 15.5555 9.38858 15.5555 9.99961C15.5555 10.6106 15.0555 11.1106 14.4445 11.1106ZM11.1111 15.5552H5.55575C4.94472 15.5552 4.44472 15.0553 4.44472 14.4442C4.44472 13.833 4.94472 13.333 5.55575 13.333H11.1111C11.7222 13.333 12.2222 13.833 12.2222 14.4442C12.2222 15.0553 11.7222 15.5552 11.1111 15.5552ZM16.6667 0H3.33326C1.49999 0 0 1.49999 0 3.33326V16.6667C0 18.5 1.49999 20 3.33326 20H16.6667C18.5 20 20 18.5 20 16.6667V3.33326C20 1.49999 18.5 0 16.6667 0" fill="#527EBF"/>
</svg>
