<svg width="20" height="20" viewBox="0 0 20 20" fill="none" xmlns="http://www.w3.org/2000/svg">
<path d="M10.0002 0C4.47736 0 0 4.47736 0 10.0002C0 15.5231 4.47695 20 10.0002 20C15.5231 20 20.0004 15.5231 20.0004 10.0002C20.0004 4.47736 15.5231 0 10.0002 0ZM10.7898 15.37V17.1598H9.07015V15.4923C7.89458 15.44 6.7541 15.1242 6.08709 14.7381L6.61331 12.685C7.35057 13.0887 8.38588 13.457 9.52637 13.457C10.5266 13.457 11.2109 13.0711 11.2109 12.369C11.2109 11.7024 10.6494 11.2812 9.35086 10.8426C7.47324 10.2108 6.1923 9.33328 6.1923 7.631C6.1923 6.0868 7.28028 4.87615 9.1579 4.50752V2.84065H10.8774V4.38485C12.0533 4.43753 12.843 4.68318 13.4222 4.96407L12.9131 6.94673C12.4569 6.7536 11.6496 6.35039 10.3863 6.35039C9.24565 6.35039 8.87702 6.84152 8.87702 7.33266C8.87702 7.91204 9.49132 8.28018 10.9828 8.84193C13.0712 9.57887 13.9133 10.5437 13.9133 12.1232C13.9133 13.6852 12.8077 15.0188 10.7898 15.37Z" fill="#527EBF"/>
</svg>
