<svg width="40" height="40" viewBox="0 0 40 40" fill="none" xmlns="http://www.w3.org/2000/svg">
<g filter="url(#filter0_d_243_687)">
<path d="M20 9C17.3478 9 14.8043 10.0536 12.929 11.929C11.0536 13.8043 10 16.3479 10 19C10 21.6521 11.0536 24.1957 12.929 26.071C14.8043 27.9464 17.3479 29 20 29C22.6521 29 25.1957 27.9464 27.071 26.071C28.9464 24.1957 30 21.6521 30 19C30 16.3479 28.9464 13.8043 27.071 11.929C25.1957 10.0536 22.6521 9 20 9ZM19.734 23.9999C19.447 23.9999 19.1719 23.8859 18.9689 23.6829C18.766 23.4801 18.6521 23.2048 18.6521 22.9179C18.6521 22.6309 18.766 22.3558 18.9689 22.1528C19.1719 21.95 19.447 21.8358 19.734 21.8358C20.0209 21.8358 20.2962 21.95 20.499 22.1528C20.702 22.3558 20.816 22.6309 20.816 22.9179C20.816 23.2048 20.702 23.4801 20.499 23.6829C20.2962 23.8859 20.0209 23.9999 19.734 23.9999ZM23.2219 17.2878C23.0972 17.7211 22.8542 18.1112 22.5199 18.4139C22.2531 18.6663 21.9676 18.8981 21.666 19.1078C21.448 19.2678 21.2339 19.4358 21.0199 19.6038C20.877 19.7291 20.7681 19.8888 20.704 20.0678C20.6493 20.2011 20.596 20.3291 20.5439 20.4518C20.4907 20.5898 20.3968 20.7084 20.2746 20.792C20.1525 20.8755 20.008 20.92 19.86 20.9199C19.6646 20.9429 19.467 20.9008 19.298 20.7998C19.1599 20.7137 19.0477 20.5919 18.9735 20.4471C18.8992 20.3024 18.8656 20.1402 18.876 19.9778C18.887 19.5763 19.0475 19.1932 19.3261 18.9039C19.6497 18.5725 20.0019 18.2701 20.3781 17.9999C20.6585 17.7956 20.9003 17.5431 21.092 17.2539C21.354 16.8179 21.2719 16.104 20.824 15.788V15.7878C20.6623 15.6745 20.477 15.5993 20.282 15.5678C19.9844 15.5121 19.6776 15.5293 19.388 15.6179C19.0704 15.7306 18.8139 15.9704 18.68 16.2799C18.5641 16.5018 18.462 16.7318 18.33 16.9439C18.2293 17.1002 18.0813 17.2203 17.9074 17.2864C17.7337 17.3527 17.5433 17.3616 17.364 17.3118C17.2022 17.2856 17.052 17.2118 16.9321 17.0999C16.7707 16.9431 16.6848 16.7245 16.6961 16.4999C16.7014 16.1131 16.8226 15.7369 17.044 15.4199C17.4169 14.8845 17.9466 14.4778 18.56 14.2559C18.9698 14.096 19.4043 14.0094 19.844 13.9999C20.488 13.9902 21.1273 14.1127 21.722 14.3598C22.2257 14.5622 22.6526 14.9185 22.942 15.3779C23.2948 15.9486 23.3962 16.6398 23.2219 17.2878L23.2219 17.2878Z" fill="#FDBA2B"/>
</g>
<defs>
<filter id="filter0_d_243_687" x="0" y="0" width="40" height="40" filterUnits="userSpaceOnUse" color-interpolation-filters="sRGB">
<feFlood flood-opacity="0" result="BackgroundImageFix"/>
<feColorMatrix in="SourceAlpha" type="matrix" values="0 0 0 0 0 0 0 0 0 0 0 0 0 0 0 0 0 0 127 0" result="hardAlpha"/>
<feOffset dy="1"/>
<feGaussianBlur stdDeviation="5"/>
<feComposite in2="hardAlpha" operator="out"/>
<feColorMatrix type="matrix" values="0 0 0 0 0.992157 0 0 0 0 0.729412 0 0 0 0 0.168627 0 0 0 0.5 0"/>
<feBlend mode="normal" in2="BackgroundImageFix" result="effect1_dropShadow_243_687"/>
<feBlend mode="normal" in="SourceGraphic" in2="effect1_dropShadow_243_687" result="shape"/>
</filter>
</defs>
</svg>
