<svg width="38" height="38" viewBox="0 0 38 38" fill="none" xmlns="http://www.w3.org/2000/svg">
<g filter="url(#filter0_d_243_335)">
<path d="M24.0724 12.2143V9.37285L27.5568 12.8572H24.7153C24.5448 12.8572 24.3812 12.7895 24.2607 12.6689C24.1402 12.5484 24.0724 12.3848 24.0724 12.2143ZM27.9296 14.1429V25.0714C27.9296 25.583 27.7264 26.0734 27.3648 26.4352C27.003 26.7968 26.5126 27 26.001 27H15.7153C15.2038 27 14.7133 26.7968 14.3516 26.4352C13.99 26.0735 13.7868 25.583 13.7868 25.0714V22.6543L15.6381 24.5056C15.8823 24.7554 16.192 24.9317 16.5318 25.0136L19.1032 25.6564C19.2568 25.6945 19.4143 25.714 19.5724 25.7143C20.0837 25.7138 20.574 25.5104 20.9353 25.1486C21.4148 24.6695 21.6076 23.974 21.4432 23.3165L20.8003 20.7451C20.7149 20.4067 20.5394 20.0979 20.2925 19.8514L14.2625 13.8214C14.1177 13.6748 13.9583 13.5435 13.7868 13.4292V10.9286C13.7868 10.417 13.99 9.92656 14.3516 9.56479C14.7134 9.20319 15.2038 9 15.7154 9H22.7868V12.2143C22.7868 12.7258 22.99 13.2163 23.3516 13.578C23.7133 13.9397 24.2038 14.1428 24.7154 14.1428L27.9296 14.1429ZM25.3581 21.2143C25.3581 21.0438 25.2904 20.8803 25.1699 20.7597C25.0494 20.6392 24.8858 20.5715 24.7153 20.5715H23.4296C23.1999 20.5715 22.9876 20.694 22.8728 20.8929C22.758 21.0918 22.758 21.3369 22.8728 21.5357C22.9876 21.7346 23.1999 21.8572 23.4296 21.8572H24.7153C24.8858 21.8572 25.0494 21.7894 25.1699 21.6689C25.2904 21.5484 25.3581 21.3848 25.3581 21.2143ZM25.3581 17.3572C25.3581 17.1867 25.2904 17.0231 25.1699 16.9026C25.0494 16.7821 24.8858 16.7143 24.7153 16.7143H20.8582C20.6284 16.7143 20.4162 16.8369 20.3014 17.0358C20.1866 17.2346 20.1866 17.4797 20.3014 17.6786C20.4162 17.8775 20.6284 18 20.8582 18H24.7153C24.8858 18 25.0494 17.9323 25.1699 17.8118C25.2904 17.6912 25.3581 17.5276 25.3581 17.3572ZM13.3559 14.7279C12.8402 14.2652 12.1225 14.1003 11.4564 14.2917C10.7905 14.4831 10.2697 15.0039 10.0783 15.6699C9.88688 16.336 10.0518 17.0536 10.5145 17.5693L10.9453 18.0001L13.7867 15.1586L13.3559 14.7279ZM16.8466 23.7856L19.4181 24.4284C19.4693 24.4346 19.5211 24.4346 19.5723 24.4284C19.7432 24.4294 19.9074 24.3623 20.0288 24.242C20.1878 24.0819 20.2512 23.8502 20.196 23.6313L19.5531 21.0599C19.526 20.9458 19.4681 20.8414 19.3859 20.7577L14.6997 16.0715L11.8582 18.913L16.5444 23.5992C16.6257 23.6885 16.7304 23.753 16.8466 23.7856Z" fill="#FDBA2B"/>
</g>
<defs>
<filter id="filter0_d_243_335" x="0" y="0" width="37.9297" height="38" filterUnits="userSpaceOnUse" color-interpolation-filters="sRGB">
<feFlood flood-opacity="0" result="BackgroundImageFix"/>
<feColorMatrix in="SourceAlpha" type="matrix" values="0 0 0 0 0 0 0 0 0 0 0 0 0 0 0 0 0 0 127 0" result="hardAlpha"/>
<feOffset dy="1"/>
<feGaussianBlur stdDeviation="5"/>
<feComposite in2="hardAlpha" operator="out"/>
<feColorMatrix type="matrix" values="0 0 0 0 0.992157 0 0 0 0 0.729412 0 0 0 0 0.168627 0 0 0 0.5 0"/>
<feBlend mode="normal" in2="BackgroundImageFix" result="effect1_dropShadow_243_335"/>
<feBlend mode="normal" in="SourceGraphic" in2="effect1_dropShadow_243_335" result="shape"/>
</filter>
</defs>
</svg>
