<svg width="18" height="18" viewBox="0 0 18 18" fill="none" xmlns="http://www.w3.org/2000/svg">
<path d="M14.0724 3.21434V0.372852L17.5568 3.8572H14.7153C14.5448 3.8572 14.3812 3.78947 14.2607 3.66893C14.1402 3.5484 14.0724 3.38481 14.0724 3.21434ZM17.9296 5.14291V16.0714C17.9296 16.583 17.7264 17.0734 17.3648 17.4352C17.003 17.7968 16.5126 18 16.001 18H5.71533C5.20376 18 4.71332 17.7968 4.35156 17.4352C3.98995 17.0735 3.78677 16.583 3.78677 16.0714V13.6543L5.63811 15.5056C5.88234 15.7554 6.192 15.9317 6.53179 16.0136L9.10321 16.6564C9.25675 16.6945 9.41431 16.714 9.57242 16.7143C10.0837 16.7138 10.574 16.5104 10.9353 16.1486C11.4148 15.6695 11.6076 14.974 11.4432 14.3165L10.8003 11.7451C10.7149 11.4067 10.5394 11.0979 10.2925 10.8514L4.26251 4.82141C4.11773 4.67476 3.95831 4.54346 3.78684 4.42923V1.92856C3.78684 1.417 3.99002 0.926556 4.35163 0.564794C4.71338 0.203186 5.20384 0 5.7154 0H12.7868V3.21427C12.7868 3.72584 12.99 4.21628 13.3516 4.57804C13.7133 4.93965 14.2038 5.14284 14.7154 5.14284L17.9296 5.14291ZM15.3581 12.2143C15.3581 12.0438 15.2904 11.8803 15.1699 11.7597C15.0494 11.6392 14.8858 11.5715 14.7153 11.5715H13.4296C13.1999 11.5715 12.9876 11.694 12.8728 11.8929C12.758 12.0918 12.758 12.3369 12.8728 12.5357C12.9876 12.7346 13.1999 12.8572 13.4296 12.8572H14.7153C14.8858 12.8572 15.0494 12.7894 15.1699 12.6689C15.2904 12.5484 15.3581 12.3848 15.3581 12.2143ZM15.3581 8.35718C15.3581 8.18671 15.2904 8.02312 15.1699 7.90259C15.0494 7.78206 14.8858 7.71433 14.7153 7.71433H10.8582C10.6284 7.71433 10.4162 7.83687 10.3014 8.03575C10.1866 8.23464 10.1866 8.47973 10.3014 8.67861C10.4162 8.87749 10.6284 9.00003 10.8582 9.00003H14.7153C14.8858 9.00003 15.0494 8.9323 15.1699 8.81177C15.2904 8.69124 15.3581 8.52765 15.3581 8.35718ZM3.35587 5.72794C2.84015 5.26516 2.12254 5.10029 1.45644 5.29172C0.790475 5.48314 0.269726 6.00389 0.078302 6.66985C-0.113118 7.33596 0.0517554 8.05357 0.514525 8.56928L0.945311 9.00007L3.78665 6.15858L3.35587 5.72794ZM6.84664 14.7856L9.41806 15.4284C9.46929 15.4346 9.52109 15.4346 9.57232 15.4284C9.74322 15.4294 9.90738 15.3623 10.0288 15.242C10.1878 15.0819 10.2512 14.8502 10.196 14.6313L9.5531 12.0599C9.52598 11.9458 9.46815 11.8414 9.38593 11.7577L4.6997 7.07148L1.85821 9.91297L6.54444 14.5992C6.62565 14.6885 6.73041 14.753 6.84664 14.7856Z" fill="#527EBF"/>
</svg>
