<svg width="24" height="15" viewBox="0 0 24 15" fill="none" xmlns="http://www.w3.org/2000/svg">
<path d="M0.999985 0.000218547C0.447706 0.000225986 0 0.447939 0 1.00022V3.57536C1.97438 3.57514 3.57513 5.17588 3.57513 7.15026C3.57513 9.12465 1.97462 10.7254 0 10.7254V13.3005C0 13.8528 0.447715 14.3005 1 14.3005H17.2251V11.7005H18.525V14.3005H23C23.5523 14.3005 24 13.8528 24 13.3005V10.7254C22.0256 10.7254 20.4249 9.12488 20.4249 7.15026C20.4249 5.17588 22.0254 3.57513 24 3.57513V0.999999C24 0.447714 23.5523 0 23 0H18.525V2.60007H17.2251V0L0.999985 0.000218547ZM10.4 2.6003L11.6188 5.62676L14.95 5.82989L12.3805 7.90171L13.2132 11.0502L10.3998 9.30317L7.5864 11.0502L8.4191 7.90171L5.84968 5.82989L9.18083 5.62676L10.4 2.6003ZM17.2251 3.90019H18.525V6.50026H17.2251V3.90019ZM17.2251 7.80015H18.525V10.4002H17.2251V7.80015Z" fill="#5B9BFB"/>
</svg>
