<svg width="20" height="20" viewBox="0 0 20 20" fill="none" xmlns="http://www.w3.org/2000/svg">
<path d="M9.99996 19.9999C12.652 19.9999 15.1954 18.9464 17.0711 17.0711C18.9464 15.1957 19.9999 12.6523 19.9999 9.99996C19.9999 7.34763 18.9464 4.80453 17.0711 2.92881C15.1957 1.05352 12.6523 0 9.99996 0C7.34763 0 4.80453 1.05352 2.92881 2.92881C1.05352 4.80426 0 7.34763 0 9.99996C0.00295887 12.6513 1.05738 15.193 2.93208 17.0679C4.80673 18.9426 7.34851 19.9971 10 20L9.99996 19.9999ZM5.78605 13.2278L9.30225 9.71061V4.4187C9.30225 4.16938 9.43524 3.93907 9.65109 3.81448C9.86693 3.6899 10.1329 3.6899 10.3488 3.81448C10.5646 3.93907 10.6976 4.16939 10.6976 4.4187V10C10.6977 10.185 10.6241 10.3626 10.493 10.4931L6.77212 14.2139C6.59397 14.3799 6.34232 14.441 6.10794 14.3752C5.87357 14.3095 5.69042 14.1264 5.62472 13.892C5.559 13.6576 5.62005 13.406 5.78606 13.2278L5.78605 13.2278Z" fill="#5B9BFB"/>
</svg>
