<svg width="19" height="19" viewBox="0 0 19 19" fill="none" xmlns="http://www.w3.org/2000/svg">
<path fill-rule="evenodd" clip-rule="evenodd" d="M3.29585 15.8878C6.77301 19.365 12.4106 19.365 15.8877 15.8878C19.3649 12.4107 19.3649 6.7731 15.8877 3.29594C12.4106 -0.18121 6.77301 -0.18121 3.29585 3.29594C-0.181301 6.7731 -0.181301 12.4107 3.29585 15.8878ZM13.549 9.00349C14.0044 9.00349 14.3735 9.3726 14.3735 9.82792C14.3735 10.2832 14.0044 10.6523 13.549 10.6523H10.4162V13.7852C10.4162 14.2405 10.0471 14.6096 9.5918 14.6096C9.13648 14.6096 8.76737 14.2405 8.76737 13.7852V10.6523L5.63455 10.6523C5.17923 10.6523 4.81012 10.2832 4.81012 9.82792C4.81012 9.3726 5.17923 9.00349 5.63455 9.00349L8.76737 9.00349L8.76737 5.87067C8.76737 5.41535 9.13648 5.04624 9.59179 5.04624C10.0471 5.04624 10.4162 5.41535 10.4162 5.87067V9.00349L13.549 9.00349Z" fill="black"/>
</svg>
