<svg width="37" height="37" viewBox="0 0 37 37" fill="none" xmlns="http://www.w3.org/2000/svg">
<path d="M18.5 0C28.7176 0 37 8.28245 37 18.5C37 28.7176 28.7176 37 18.5 37C8.28245 37 0 28.7176 0 18.5C0 8.28245 8.28245 0 18.5 0ZM18.5 9.25C18.1647 9.25001 17.8408 9.37144 17.5881 9.59182C17.3354 9.8122 17.171 10.1166 17.1255 10.4488L17.1125 10.6375V17.1125H10.6375C10.286 17.1126 9.94756 17.2462 9.69069 17.4862C9.43381 17.7261 9.27761 18.0547 9.25365 18.4054C9.22969 18.7562 9.33975 19.1029 9.5616 19.3756C9.78345 19.6483 10.1005 19.8266 10.4488 19.8745L10.6375 19.8875H17.1125V26.3625C17.1126 26.714 17.2462 27.0524 17.4862 27.3093C17.7261 27.5662 18.0547 27.7224 18.4054 27.7463C18.7562 27.7703 19.1029 27.6602 19.3756 27.4384C19.6483 27.2166 19.8266 26.8995 19.8745 26.5512L19.8875 26.3625V19.8875H26.3625C26.714 19.8874 27.0524 19.7538 27.3093 19.5139C27.5662 19.2739 27.7224 18.9453 27.7463 18.5946C27.7703 18.2438 27.6602 17.8971 27.4384 17.6244C27.2166 17.3517 26.8995 17.1734 26.5512 17.1255L26.3625 17.1125H19.8875V10.6375C19.8875 10.2695 19.7413 9.9166 19.4811 9.65639C19.2209 9.39618 18.868 9.25 18.5 9.25Z" fill="#FDBB2C"/>
</svg>
