<svg width="18" height="15" viewBox="0 0 18 15" fill="none" xmlns="http://www.w3.org/2000/svg">
<path d="M0.396207 1.13937C0.649976 0.796509 0.994113 0.603902 1.35294 0.603902C1.71177 0.603902 2.05591 0.796509 2.30968 1.13937L9.00817 10.1922L15.7067 1.13937C15.9619 0.806225 16.3037 0.621886 16.6585 0.626053C17.0133 0.63022 17.3527 0.822559 17.6036 1.16164C17.8545 1.50073 17.9969 1.95943 17.9999 2.43895C18.003 2.91847 17.8666 3.38044 17.6201 3.72537L9.9649 14.0712C9.71114 14.4141 9.367 14.6067 9.00817 14.6067C8.64934 14.6067 8.3052 14.4141 8.05144 14.0712L0.396207 3.72537C0.142516 3.38241 -3.64898e-07 2.91732 -3.80036e-07 2.43237C-3.95174e-07 1.94742 0.142516 1.48233 0.396207 1.13937V1.13937Z" fill="white"/>
</svg>
