<svg width="18" height="10" viewBox="0 0 18 10" fill="none" xmlns="http://www.w3.org/2000/svg">
<path d="M0.396207 0.3824C0.649976 0.13755 0.994113 1.11674e-06 1.35294 1.10106e-06C1.71177 1.08537e-06 2.05591 0.13755 2.30968 0.3824L9.00817 6.84743L15.7067 0.382399C15.9619 0.144489 16.3037 0.0128446 16.6585 0.0158203C17.0133 0.0187961 17.3527 0.156153 17.6036 0.398309C17.8545 0.640464 17.9969 0.968043 17.9999 1.31049C18.003 1.65294 17.8666 1.98285 17.6201 2.22918L9.9649 9.6176C9.71114 9.86245 9.367 10 9.00817 10C8.64934 10 8.3052 9.86245 8.05144 9.6176L0.396207 2.22918C0.142516 1.98425 -3.64898e-07 1.65211 -3.80036e-07 1.30579C-3.95174e-07 0.959467 0.142516 0.627324 0.396207 0.3824V0.3824Z" fill="white"/>
</svg>
