<svg width="11" height="6" viewBox="0 0 11 6" fill="none" xmlns="http://www.w3.org/2000/svg">
<path d="M0.242127 0.22944C0.397207 0.08253 0.607514 4.50282e-07 0.826798 4.40697e-07C1.04608 4.31111e-07 1.25639 0.08253 1.41147 0.22944L5.50499 4.10846L9.59852 0.229439C9.75449 0.0866929 9.96338 0.00770621 10.1802 0.00949195C10.397 0.0112772 10.6045 0.0936918 10.7578 0.238985C10.9111 0.384278 10.9981 0.580825 11 0.786294C11.0019 0.991761 10.9185 1.18971 10.7679 1.33751L6.08966 5.77056C5.93458 5.91747 5.72428 6 5.50499 6C5.28571 6 5.0754 5.91747 4.92032 5.77056L0.242127 1.33751C0.087093 1.19055 -2.18939e-07 0.991267 -2.28022e-07 0.783473C-2.37105e-07 0.57568 0.0870929 0.376394 0.242127 0.22944Z" fill="white"/>
</svg>
