<svg width="13" height="23" viewBox="0 0 13 23" fill="none" xmlns="http://www.w3.org/2000/svg">
<path d="M12.5029 0.506265C12.8212 0.830525 13 1.27026 13 1.72876C13 2.18726 12.8212 2.62699 12.5029 2.95125L4.09834 11.5104L12.5029 20.0696C12.8122 20.3957 12.9833 20.8325 12.9794 21.2859C12.9756 21.7393 12.797 22.173 12.4822 22.4936C12.1674 22.8141 11.7415 22.996 11.2964 22.9999C10.8512 23.0039 10.4223 22.8296 10.1021 22.5146L0.497118 12.7329C0.178814 12.4087 0 11.9689 0 11.5104C0 11.0519 0.178814 10.6122 0.497118 10.2879L10.1021 0.506265C10.4205 0.182104 10.8523 0 11.3025 0C11.7527 0 12.1845 0.182104 12.5029 0.506265Z" fill="white"/>
</svg>
