<svg width="10" height="11" viewBox="0 0 10 11" fill="none" xmlns="http://www.w3.org/2000/svg">
<path d="M8.75 2.51436H0.9375V2.17793L7.8125 1.58581V2.17793H8.75V1.16863C8.75 0.428481 8.19312 -0.0909693 7.51312 0.0133245L1.2375 0.97821C0.556875 1.08318 0 1.77421 0 2.51436V9.24299C0 9.5999 0.131696 9.94219 0.366116 10.1946C0.600537 10.4469 0.918479 10.5887 1.25 10.5887H8.75C9.08152 10.5887 9.39946 10.4469 9.63388 10.1946C9.8683 9.94219 10 9.5999 10 9.24299V3.86008C10 3.50317 9.8683 3.16088 9.63388 2.90851C9.39946 2.65614 9.08152 2.51436 8.75 2.51436ZM7.8125 7.22844C7.68934 7.22839 7.5674 7.20223 7.45364 7.15145C7.33987 7.10067 7.23651 7.02627 7.14946 6.93248C7.0624 6.8387 6.99336 6.72737 6.94627 6.60486C6.89918 6.48235 6.87496 6.35106 6.875 6.21847C6.87504 6.08588 6.89934 5.9546 6.94651 5.83212C6.99367 5.70965 7.06279 5.59837 7.1499 5.50465C7.23701 5.41093 7.34042 5.3366 7.45422 5.2859C7.56801 5.2352 7.68997 5.20913 7.81313 5.20917C8.06185 5.20926 8.30035 5.31572 8.47617 5.50513C8.65198 5.69453 8.75071 5.95137 8.75062 6.21914C8.75054 6.48691 8.65166 6.74368 8.47573 6.93296C8.29979 7.12224 8.06122 7.22853 7.8125 7.22844Z" fill="#FDBB2C"/>
</svg>
