<svg width="6" height="11" viewBox="0 0 6 11" fill="none" xmlns="http://www.w3.org/2000/svg">
<path d="M4.79729 5.50499L4.47139 5.16108L0.592426 1.06761C0.592409 1.06759 0.592391 1.06757 0.592374 1.06755C0.53603 1.00804 0.5 0.921892 0.5 0.826798C0.5 0.731675 0.536052 0.645498 0.592426 0.585988C0.647929 0.527491 0.71725 0.5 0.783473 0.5C0.849716 0.5 0.91906 0.527508 0.974572 0.586043L4.79729 5.50499ZM4.79729 5.50499L4.47139 5.84891L0.596048 9.93856C0.542315 9.99856 0.508711 10.0833 0.509475 10.1761C0.510249 10.2701 0.546183 10.3551 0.60192 10.4139C0.656826 10.4718 0.725304 10.4994 0.790879 10.5C0.855494 10.5006 0.923116 10.475 0.978249 10.4201L5.40757 5.7458C5.40759 5.74578 5.40761 5.74577 5.40763 5.74575C5.46397 5.68624 5.5 5.60009 5.5 5.50499C5.5 5.4099 5.46397 5.32375 5.40763 5.26424C5.40761 5.26422 5.40759 5.2642 5.40757 5.26418L0.974625 0.586098L4.79729 5.50499Z" fill="white" stroke="white"/>
</svg>
