<svg width="6" height="11" viewBox="0 0 6 11" fill="none" xmlns="http://www.w3.org/2000/svg">
<path d="M1.20271 5.50499L1.52861 5.16108L5.40757 1.06761C5.40759 1.06759 5.40761 1.06757 5.40763 1.06755C5.46397 1.00804 5.5 0.921892 5.5 0.826798C5.5 0.731675 5.46395 0.645498 5.40757 0.585988C5.35207 0.527491 5.28275 0.5 5.21653 0.5C5.15028 0.5 5.08094 0.527508 5.02543 0.586043L1.20271 5.50499ZM1.20271 5.50499L1.52861 5.84891L5.40395 9.93856C5.45769 9.99856 5.49129 10.0833 5.49053 10.1761C5.48975 10.2701 5.45382 10.3551 5.39808 10.4139C5.34317 10.4718 5.2747 10.4994 5.20912 10.5C5.14451 10.5006 5.07688 10.475 5.02175 10.4201L0.592426 5.7458C0.592408 5.74578 0.592391 5.74577 0.592374 5.74575C0.53603 5.68624 0.5 5.60009 0.5 5.50499C0.5 5.4099 0.536029 5.32375 0.592374 5.26424C0.592391 5.26422 0.592408 5.2642 0.592426 5.26418L5.02538 0.586098L1.20271 5.50499Z" fill="white" stroke="white"/>
</svg>
