<svg width="48" height="40" viewBox="0 0 48 40" fill="none" xmlns="http://www.w3.org/2000/svg">
<g filter="url(#filter0_d_162_432)">
<path fill-rule="evenodd" clip-rule="evenodd" d="M17.4312 9C20.9396 9 23.8728 11.5881 24.3904 14.9527L24.3903 14.9527C22.4923 16.5345 21.2845 18.9213 21.2845 21.5668V21.9407C20.163 22.6596 18.8403 23.0909 17.4311 23.0909C16.1369 23.0909 14.9005 22.7172 13.8652 22.1132L11.0471 23.4072C10.4433 23.6949 9.78174 23.0622 10.0694 22.4295L11.3634 19.6114C10.7596 18.5473 10.3857 17.3395 10.3857 16.0455C10.3857 12.1634 13.5489 9 17.4312 9ZM16.626 19.6401C16.626 20.1578 17.0574 20.5891 17.575 20.5891C18.0925 20.5891 18.5239 20.1576 18.5239 19.6401C18.5239 19.1224 18.0925 18.6911 17.575 18.6911C17.0572 18.6911 16.626 19.1226 16.626 19.6401ZM18.8771 16.6724C19.1636 16.472 19.5338 16.2131 19.9042 15.7004L19.9042 15.7004C20.4507 14.8952 20.5369 13.86 20.0768 13.0261C19.5879 12.0771 18.61 11.5307 17.4598 11.5307C15.648 11.5307 14.6993 12.796 14.4979 14.0901C14.4692 14.3775 14.6704 14.6076 14.958 14.6076H15.6482C15.8494 14.6076 16.0508 14.4638 16.0795 14.2337C16.1658 13.7448 16.4532 13.1122 17.4598 13.1122C18.2363 13.1122 18.5526 13.5147 18.6676 13.7448C18.8688 14.0898 18.8401 14.4924 18.61 14.8088C18.4386 15.0538 18.2463 15.1945 18.0508 15.3374C18.0168 15.3623 17.9827 15.3872 17.9487 15.4128C17.3449 15.8154 16.8847 16.2179 16.7985 17.4257C16.7696 17.6845 16.971 17.9145 17.2297 17.9145H17.92C18.15 17.9145 18.3514 17.742 18.3801 17.512C18.4078 17.0126 18.5427 16.9148 18.8363 16.7018C18.847 16.6941 18.8579 16.6862 18.869 16.6781L18.8771 16.6724ZM35.9795 25.1327L37.2735 27.9508L37.2734 27.9509C37.5324 28.5835 36.8997 29.2162 36.2957 28.9286L33.4776 27.6346C32.4135 28.2672 31.2057 28.6122 29.9117 28.6122C26.0296 28.6122 22.8662 25.4491 22.8662 21.5668C22.8662 17.6847 26.0294 14.5213 29.9117 14.5213C33.7938 14.5213 36.9571 17.6845 36.9571 21.5668C36.9571 22.861 36.5835 24.0974 35.9795 25.1327ZM24.9368 21.5669C24.9368 22.2569 25.4831 22.8033 26.1733 22.8033C26.8635 22.8033 27.4099 22.257 27.4097 21.5669C27.4097 20.8769 26.8635 20.3304 26.1733 20.3304C25.4833 20.3304 24.9368 20.8767 24.9368 21.5669ZM28.6753 21.5669C28.6753 22.2569 29.2215 22.8033 29.9117 22.8033C30.5731 22.8033 31.1484 22.257 31.1482 21.5669C31.1482 20.8769 30.6019 20.3304 29.9117 20.3304C29.2217 20.3304 28.6753 20.8767 28.6753 21.5669ZM32.385 21.5669C32.385 22.2569 32.9313 22.8033 33.6215 22.8033C34.3115 22.8033 34.8579 22.2569 34.8579 21.5669C34.8579 20.8769 34.3117 20.3304 33.6215 20.3304C32.9315 20.3304 32.385 20.8767 32.385 21.5669Z" fill="#FDBA2B"/>
</g>
<defs>
<filter id="filter0_d_162_432" x="0" y="0" width="47.333" height="40" filterUnits="userSpaceOnUse" color-interpolation-filters="sRGB">
<feFlood flood-opacity="0" result="BackgroundImageFix"/>
<feColorMatrix in="SourceAlpha" type="matrix" values="0 0 0 0 0 0 0 0 0 0 0 0 0 0 0 0 0 0 127 0" result="hardAlpha"/>
<feOffset dy="1"/>
<feGaussianBlur stdDeviation="5"/>
<feComposite in2="hardAlpha" operator="out"/>
<feColorMatrix type="matrix" values="0 0 0 0 0.992157 0 0 0 0 0.729412 0 0 0 0 0.168627 0 0 0 0.5 0"/>
<feBlend mode="normal" in2="BackgroundImageFix" result="effect1_dropShadow_162_432"/>
<feBlend mode="normal" in="SourceGraphic" in2="effect1_dropShadow_162_432" result="shape"/>
</filter>
</defs>
</svg>
