<svg width="10" height="10" viewBox="0 0 10 10" fill="none" xmlns="http://www.w3.org/2000/svg">
<path d="M9.58916 5.8006C9.4495 5.75705 9.2983 5.7705 9.16851 5.83804C9.03872 5.90557 8.94088 6.02171 8.89631 6.16114C8.63444 6.96233 8.12394 7.65902 7.43907 8.14983C6.75419 8.64064 5.93069 8.89996 5.08835 8.89008C4.04649 8.90193 3.04245 8.49985 2.2964 7.77201C1.55035 7.04417 1.12318 6.04997 1.10857 5.00744C1.12318 3.9649 1.55035 2.97071 2.2964 2.24286C3.04245 1.51502 4.04649 1.11294 5.08835 1.1248C6.0293 1.12252 6.94129 1.45028 7.66579 2.05108L6.46299 1.8514C6.3909 1.83953 6.31718 1.84204 6.24606 1.85878C6.17495 1.87552 6.10784 1.90617 6.04861 1.94895C5.98937 1.99173 5.93917 2.04581 5.90089 2.10808C5.86261 2.17035 5.83701 2.23957 5.82556 2.31177C5.81369 2.38391 5.8162 2.45768 5.83293 2.52884C5.84966 2.60001 5.88028 2.66716 5.92304 2.72644C5.96579 2.78571 6.01983 2.83595 6.08206 2.87426C6.14428 2.91256 6.21346 2.93818 6.28561 2.94964L8.63579 3.3379H8.73002C8.79429 3.33782 8.85806 3.32656 8.91848 3.30462C8.93878 3.29691 8.95755 3.28564 8.97391 3.27134C9.01365 3.25655 9.051 3.236 9.08476 3.21033L9.13465 3.14932C9.13465 3.12158 9.18454 3.0994 9.20671 3.06612C9.22888 3.03284 9.20671 3.01065 9.23442 2.98846C9.24974 2.95616 9.2627 2.92279 9.27322 2.88862L9.68894 0.669972C9.70277 0.597132 9.70212 0.52228 9.68705 0.449689C9.67197 0.377098 9.64275 0.30819 9.60106 0.246899C9.55937 0.185608 9.50602 0.133134 9.44406 0.0924736C9.38211 0.0518132 9.31275 0.0237624 9.23996 0.00992292C9.16717 -0.00391657 9.09237 -0.00327377 9.01983 0.0118146C8.94729 0.026903 8.87843 0.0561415 8.81718 0.0978608C8.69348 0.182117 8.60829 0.312094 8.58036 0.4592L8.4307 1.26346C7.50282 0.458779 6.3162 0.0157085 5.08835 0.0154695C3.75249 0.00363707 2.46649 0.522595 1.51254 1.45847C0.558596 2.39434 0.0146281 3.67069 0 5.00744C0.0146281 6.34418 0.558596 7.62053 1.51254 8.5564C2.46649 9.49228 3.75249 10.0112 5.08835 9.9994C6.17095 10.016 7.23029 9.68442 8.1104 9.05335C8.99051 8.42228 9.64488 7.52511 9.97717 6.49393C9.99819 6.42292 10.0048 6.34841 9.99657 6.2748C9.98836 6.2012 9.9655 6.12998 9.92933 6.06536C9.89317 6.00074 9.84444 5.94402 9.78601 5.89855C9.72759 5.85307 9.66066 5.81977 9.58916 5.8006Z" fill="white"/>
</svg>
