<svg width="54" height="54" viewBox="0 0 54 54" fill="none" xmlns="http://www.w3.org/2000/svg">
<path d="M27 0C34.1608 0 41.0284 2.84463 46.0919 7.90812C51.1554 12.9716 54 19.8392 54 27C54 34.1608 51.1554 41.0284 46.0919 46.0919C41.0284 51.1554 34.1608 54 27 54C19.8392 54 12.9716 51.1554 7.90812 46.0919C2.84463 41.0284 0 34.1608 0 27C0 19.8392 2.84463 12.9716 7.90812 7.90812C12.9716 2.84463 19.8392 0 27 0ZM23.6366 32.3267L17.6387 26.325C17.4237 26.11 17.1684 25.9394 16.8875 25.823C16.6066 25.7067 16.3054 25.6468 16.0014 25.6468C15.6973 25.6468 15.3962 25.7067 15.1152 25.823C14.8343 25.9394 14.579 26.11 14.364 26.325C13.9297 26.7593 13.6858 27.3482 13.6858 27.9624C13.6858 28.5765 13.9297 29.1655 14.364 29.5997L22.0011 37.2369C22.2156 37.453 22.4706 37.6245 22.7516 37.7415C23.0327 37.8586 23.3341 37.9188 23.6385 37.9188C23.9429 37.9188 24.2443 37.8586 24.5254 37.7415C24.8064 37.6245 25.0614 37.453 25.2759 37.2369L41.0901 21.4187C41.308 21.2046 41.4814 20.9494 41.6002 20.668C41.719 20.3865 41.7809 20.0843 41.7823 19.7788C41.7837 19.4733 41.7246 19.1706 41.6084 18.888C41.4923 18.6055 41.3213 18.3487 41.1054 18.1326C40.8895 17.9164 40.633 17.7452 40.3506 17.6287C40.0682 17.5122 39.7655 17.4527 39.46 17.4538C39.1545 17.4549 38.8522 17.5164 38.5706 17.6349C38.289 17.7533 38.0337 17.9264 37.8193 18.144L23.6366 32.3267Z" fill="#49BF00"/>
</svg>
