<svg width="22" height="22" viewBox="0 0 22 22" fill="none" xmlns="http://www.w3.org/2000/svg">
<path d="M11 18.92C8.25 18.92 5.819 17.512 4.4 15.4C4.433 13.2 8.8 11.99 11 11.99C13.2 11.99 17.567 13.2 17.6 15.4C16.8728 16.4829 15.8904 17.3703 14.7395 17.9841C13.5886 18.5979 12.3044 18.9193 11 18.92ZM11 3.3C11.8752 3.3 12.7146 3.64768 13.3335 4.26655C13.9523 4.88542 14.3 5.72479 14.3 6.6C14.3 7.47521 13.9523 8.31458 13.3335 8.93345C12.7146 9.55232 11.8752 9.9 11 9.9C10.1248 9.9 9.28542 9.55232 8.66655 8.93345C8.04768 8.31458 7.7 7.47521 7.7 6.6C7.7 5.72479 8.04768 4.88542 8.66655 4.26655C9.28542 3.64768 10.1248 3.3 11 3.3ZM11 0C9.55546 0 8.12506 0.284523 6.79048 0.837325C5.4559 1.39013 4.24327 2.20038 3.22183 3.22183C1.15893 5.28473 0 8.08262 0 11C0 13.9174 1.15893 16.7153 3.22183 18.7782C4.24327 19.7996 5.4559 20.6099 6.79048 21.1627C8.12506 21.7155 9.55546 22 11 22C13.9174 22 16.7153 20.8411 18.7782 18.7782C20.8411 16.7153 22 13.9174 22 11C22 4.917 17.05 0 11 0Z" fill="white"/>
</svg>
