<svg width="19" height="14" viewBox="0 0 19 14" fill="none" xmlns="http://www.w3.org/2000/svg">
<path d="M7.125 14H16.15C16.9059 14 17.6308 13.705 18.1653 13.1799C18.6997 12.6548 19 11.9426 19 11.2V7H8.132L9.766 8.60533C9.836 8.66942 9.89215 8.7467 9.93109 8.83256C9.97003 8.91843 9.99097 9.01112 9.99266 9.10511C9.99435 9.1991 9.97675 9.29246 9.94092 9.37962C9.90508 9.46679 9.85174 9.54596 9.78409 9.61244C9.71643 9.67891 9.63584 9.73131 9.54712 9.76651C9.4584 9.80172 9.36337 9.81901 9.2677 9.81735C9.17204 9.81569 9.07769 9.79512 8.99029 9.75686C8.90289 9.7186 8.82423 9.66344 8.759 9.59467L7.125 7.98933V14ZM5.7 5.6V4.66667C5.7 4.48207 5.64428 4.30162 5.5399 4.14813C5.43551 3.99465 5.28714 3.87502 5.11355 3.80438C4.93996 3.73374 4.74895 3.71525 4.56466 3.75127C4.38038 3.78728 4.21111 3.87617 4.07825 4.0067C3.94539 4.13723 3.85491 4.30353 3.81825 4.48458C3.7816 4.66563 3.80041 4.85329 3.87231 5.02384C3.94422 5.19438 4.06598 5.34015 4.22221 5.44271C4.37844 5.54526 4.56211 5.6 4.75 5.6H5.7ZM7.125 4.66667V5.6H8.075C8.26289 5.6 8.44657 5.54526 8.60279 5.44271C8.75902 5.34015 8.88078 5.19438 8.95269 5.02384C9.02459 4.85329 9.0434 4.66563 9.00675 4.48458C8.97009 4.30353 8.87961 4.13723 8.74675 4.0067C8.61389 3.87617 8.44462 3.78728 8.26034 3.75127C8.07605 3.71525 7.88504 3.73374 7.71145 3.80438C7.53786 3.87502 7.38949 3.99465 7.2851 4.14813C7.18072 4.30162 7.125 4.48207 7.125 4.66667ZM7.125 2.52747V0H16.15C16.9059 0 17.6308 0.294999 18.1653 0.820101C18.6997 1.3452 19 2.05739 19 2.8V5.6H10.2524C10.4437 5.17008 10.4986 4.6935 10.4099 4.23246C10.3213 3.77142 10.0933 3.34734 9.75558 3.01557C9.41789 2.6838 8.98623 2.45976 8.51696 2.37269C8.04769 2.28561 7.56259 2.33955 7.125 2.52747ZM5.7 0V2.52747C5.26241 2.33955 4.77731 2.28561 4.30804 2.37269C3.83877 2.45976 3.40711 2.6838 3.06942 3.01557C2.73173 3.34734 2.50368 3.77142 2.41506 4.23246C2.32643 4.6935 2.38133 5.17008 2.5726 5.6H0V2.8C0 2.05739 0.300267 1.3452 0.834746 0.820101C1.36922 0.294999 2.09413 0 2.85 0H5.7ZM5.7 7.98933V14H2.85C2.09413 14 1.36922 13.705 0.834746 13.1799C0.300267 12.6548 0 11.9426 0 11.2V7H4.693L3.059 8.60533C2.989 8.66942 2.93285 8.7467 2.89391 8.83256C2.85497 8.91843 2.83403 9.01112 2.83234 9.10511C2.83065 9.1991 2.84825 9.29246 2.88408 9.37962C2.91992 9.46679 2.97326 9.54596 3.04091 9.61244C3.10857 9.67891 3.18916 9.73131 3.27788 9.76651C3.3666 9.80172 3.46163 9.81901 3.5573 9.81735C3.65296 9.81569 3.74731 9.79512 3.83471 9.75686C3.92211 9.7186 4.00077 9.66344 4.066 9.59467L5.7 7.98933Z" fill="white" fill-opacity="0.3"/>
</svg>
