<svg width="100" height="74" viewBox="0 0 100 74" fill="none" xmlns="http://www.w3.org/2000/svg">
<path d="M37.5 74H85C88.9782 74 92.7936 72.4407 95.6066 69.6652C98.4196 66.8896 100 63.1252 100 59.2V37H42.8L51.4 45.4853C51.7684 45.8241 52.0639 46.2325 52.2689 46.6864C52.4739 47.1403 52.5841 47.6302 52.593 48.127C52.6018 48.6238 52.5092 49.1173 52.3206 49.578C52.132 50.0387 51.8513 50.4572 51.4952 50.8086C51.1391 51.1599 50.7149 51.4369 50.248 51.623C49.781 51.8091 49.2809 51.9005 48.7774 51.8917C48.2739 51.883 47.7773 51.7742 47.3173 51.572C46.8573 51.3698 46.4433 51.0782 46.1 50.7147L37.5 42.2293V74ZM30 29.6V24.6667C30 23.6909 29.7068 22.7371 29.1573 21.9259C28.6079 21.1146 27.827 20.4823 26.9134 20.1089C25.9998 19.7355 24.9945 19.6378 24.0245 19.8281C23.0546 20.0185 22.1637 20.4883 21.4645 21.1783C20.7652 21.8682 20.289 22.7472 20.0961 23.7042C19.9031 24.6612 20.0022 25.6531 20.3806 26.5546C20.759 27.456 21.3999 28.2265 22.2221 28.7686C23.0444 29.3107 24.0111 29.6 25 29.6H30ZM37.5 24.6667V29.6H42.5C43.4889 29.6 44.4556 29.3107 45.2779 28.7686C46.1001 28.2265 46.741 27.456 47.1194 26.5546C47.4978 25.6531 47.5969 24.6612 47.4039 23.7042C47.211 22.7472 46.7348 21.8682 46.0355 21.1783C45.3363 20.4883 44.4454 20.0185 43.4755 19.8281C42.5055 19.6378 41.5002 19.7355 40.5866 20.1089C39.673 20.4823 38.8921 21.1146 38.3427 21.9259C37.7932 22.7371 37.5 23.6909 37.5 24.6667ZM37.5 13.3595V0H85C88.9782 0 92.7936 1.55928 95.6066 4.33482C98.4196 7.11036 100 10.8748 100 14.8V29.6H53.96C54.9667 27.3276 55.2556 24.8085 54.7892 22.3716C54.3227 19.9347 53.1225 17.6931 51.3452 15.9394C49.5678 14.1858 47.296 13.0016 44.8261 12.5413C42.3562 12.0811 39.8031 12.3662 37.5 13.3595ZM30 0V13.3595C27.6969 12.3662 25.1438 12.0811 22.6739 12.5413C20.204 13.0016 17.9322 14.1858 16.1548 15.9394C14.3775 17.6931 13.1773 19.9347 12.7108 22.3716C12.2444 24.8085 12.5333 27.3276 13.54 29.6H0V14.8C0 10.8748 1.58035 7.11036 4.3934 4.33482C7.20644 1.55928 11.0218 0 15 0H30ZM30 42.2293V74H15C11.0218 74 7.20644 72.4407 4.3934 69.6652C1.58035 66.8896 0 63.1252 0 59.2V37H24.7L16.1 45.4853C15.7316 45.8241 15.4361 46.2325 15.2311 46.6864C15.0261 47.1403 14.9159 47.6302 14.907 48.127C14.8982 48.6238 14.9908 49.1173 15.1794 49.578C15.368 50.0387 15.6487 50.4572 16.0048 50.8086C16.3609 51.1599 16.7851 51.4369 17.252 51.623C17.719 51.8091 18.2191 51.9005 18.7226 51.8917C19.2261 51.883 19.7227 51.7742 20.1827 51.572C20.6427 51.3698 21.0567 51.0782 21.4 50.7147L30 42.2293Z" fill="white" fill-opacity="0.3"/>
</svg>
